/* XPM */
static char *_f83b1f88a154f7ccc3afce81f150a01LxG4WpAuUGBBvhtf[] = {
/* columns rows colors chars-per-pixel */
"77 77 254 2 ",
"   c None",
".  c #000001",
"X  c #060807",
"o  c #050215",
"O  c #190415",
"+  c #1A1919",
"@  c #0E1209",
"#  c #261112",
"$  c #062507",
"%  c #0D3311",
"&  c #2B311A",
"*  c #040329",
"=  c #13092E",
"-  c #27082C",
";  c #271729",
":  c #290636",
">  c #32183D",
",  c #301432",
"<  c #16302D",
"1  c #272627",
"2  c #383838",
"3  c #322E2C",
"4  c #4B342A",
"5  c #4D2C22",
"6  c #16471C",
"7  c #016C01",
"8  c #036703",
"9  c #047506",
"0  c #0B7912",
"q  c #157717",
"w  c #196816",
"e  c #224A22",
"r  c #245626",
"t  c #32532B",
"y  c #176E25",
"u  c #29642D",
"i  c #26782A",
"p  c #386934",
"a  c #327134",
"s  c #265C18",
"d  c #5A4934",
"f  c #534932",
"g  c #624D35",
"h  c #685439",
"j  c #725738",
"k  c #537238",
"l  c #676C22",
"z  c #170E51",
"x  c #2E1151",
"c  c #333151",
"v  c #16086F",
"b  c #2B1367",
"n  c #281573",
"m  c #280473",
"M  c #262078",
"N  c #595856",
"B  c #4F4D4B",
"V  c #795E42",
"C  c #695853",
"Z  c #51754D",
"A  c #7B6446",
"S  c #6B714F",
"D  c #696765",
"F  c #746C69",
"G  c #76746C",
"H  c #787774",
"J  c #6B736B",
"K  c #4E546A",
"L  c #36455E",
"P  c #873200",
"I  c #BC5409",
"U  c #9C6421",
"Y  c #C97239",
"T  c #E77938",
"R  c #EC7135",
"E  c #DA6B14",
"W  c #846A48",
"Q  c #957551",
"!  c #A87C50",
"~  c #847472",
"^  c #AE5942",
"/  c #D17951",
"(  c #E7784D",
")  c #1E8524",
"_  c #009234",
"`  c #268729",
"'  c #37893A",
"]  c #2D9633",
"[  c #329236",
"{  c #3A9A3E",
"}  c #36983A",
"|  c #2F8D30",
" . c #37A33D",
".. c #6D8932",
"X. c #478A30",
"o. c #3D9E41",
"O. c #3C9443",
"+. c #3E8C42",
"@. c #3CA544",
"#. c #39AF51",
"$. c #33B050",
"%. c #1CAE4F",
"&. c #439846",
"*. c #509152",
"=. c #6E9049",
"-. c #42A346",
";. c #45A549",
":. c #49A54C",
">. c #46AA4A",
",. c #4AAD4E",
"<. c #41AC47",
"1. c #56A94E",
"2. c #4CB04F",
"3. c #46B54D",
"4. c #4CAF50",
"5. c #47AC50",
"6. c #54AC53",
"7. c #4DB252",
"8. c #4CBB53",
"9. c #49B555",
"0. c #51B354",
"q. c #51BB56",
"w. c #54BB59",
"e. c #57BA5B",
"r. c #6FB254",
"t. c #5CBB61",
"y. c #66B669",
"u. c #6FAB6B",
"i. c #718D6D",
"p. c #4DC255",
"a. c #49C659",
"s. c #53C359",
"d. c #55CC5D",
"f. c #57C75B",
"g. c #57D05F",
"h. c #59D15F",
"j. c #5CC262",
"k. c #5ACE62",
"l. c #56D160",
"z. c #5AD362",
"x. c #5CDA65",
"c. c #46CF61",
"v. c #65CC6B",
"b. c #64C968",
"n. c #64D66B",
"m. c #6DD873",
"M. c #73DB79",
"N. c #71CD72",
"B. c #6CE376",
"V. c #74E37B",
"C. c #75E77D",
"Z. c #61E269",
"A. c #68D462",
"S. c #9A8C36",
"D. c #B48A3C",
"F. c #88A33C",
"G. c #E98A3B",
"H. c #D8AD3A",
"J. c #E7A331",
"K. c #FDFE05",
"L. c #FBFB17",
"P. c #FFEA1C",
"I. c #F3CC30",
"U. c #FAF73B",
"Y. c #FCF82E",
"T. c #F6CF00",
"R. c #998F4B",
"E. c #A9865A",
"W. c #B38E4B",
"Q. c #8FAC4E",
"!. c #8E8672",
"~. c #B3906A",
"^. c #B1B26E",
"/. c #A7A65D",
"(. c #D4924E",
"). c #E79659",
"_. c #E7874D",
"`. c #CFA64C",
"'. c #EFAC5B",
"]. c #C39B6B",
"[. c #DA8A6A",
"{. c #E6956B",
"}. c #E7906C",
"|. c #D9A977",
" X c #D7B476",
".X c #CEB272",
"XX c #E7A568",
"oX c #E4B978",
"OX c #ECAA6F",
"+X c #B4C97C",
"@X c #8DDD7E",
"#X c #F2DB56",
"$X c #F0D150",
"%X c #F6E74A",
"&X c #F5F84A",
"*X c #F3E559",
"=X c #F0EE58",
"-X c #D3CE7B",
";X c #EAD665",
":X c #E5CF72",
">X c #EFEC65",
",X c #C3E358",
"<X c #221685",
"1X c #220F81",
"2X c #2D2584",
"3X c #6993A1",
"4X c #7CE883",
"5X c #7DF287",
"6X c #69A9CD",
"7X c #8A8885",
"8X c #938D87",
"9X c #9B9894",
"0X c #94958A",
"qX c #A29D95",
"wX c #B09286",
"eX c #91AA8A",
"rX c #ABA59D",
"tX c #A5A39A",
"yX c #B3AD9C",
"uX c #ABA9A6",
"iX c #B2ACA3",
"pX c #B3AFAB",
"aX c #B7B3AB",
"sX c #B9B8B5",
"dX c #A3BEA5",
"fX c #D49A88",
"gX c #D0B092",
"hX c #E7B48C",
"jX c #D2B2A9",
"kX c #E3B8AA",
"lX c #E4BCB3",
"zX c #83ED8A",
"xX c #84F48C",
"cX c #87F78F",
"vX c #8CFB95",
"bX c #89F792",
"nX c #91FE99",
"mX c #B6C6B1",
"MX c #9BE48C",
"NX c #C5C2BE",
"BX c #ECC2B7",
"VX c #F3C7B9",
"CX c #F1C487",
"ZX c #C9C7C5",
"AX c #D8D8D7",
"SX c #CED4CC",
"DX c #EBD5CF",
"FX c #D8E2D8",
"GX c #E3E3E3",
"HX c #EBEBEA",
"JX c #E6E9E6",
"KX c #F8FAF9",
"LX c #DAE3E9",
"PX c #8C96C0",
/* pixels */
"                                                                                                                                                          ",
",.s.s.x.B.vXnX4X0.8.q.q.q.q.q.q.q.8.q.q.q.q.q.q.q.q.q.q.q.q.q.q.q.q.q.q.q.q.q.q.q.8.q.q.q.q.q.q.q.q.q.q.q.q.q.q.q.q.q.q.q.q.0.s.x.Z.x.x.C.nXnXb.>.7.s.7.  ",
"8.s.q.8.f.4XxXv.,.,.7.4.,.7.4.4.7.7.4.4.,.4.4.4.4.4.,.4.4.4.4.4.,.4.4.4.4.4.,.4.4.4.4.4.4.4.4.4.4.4.,.4.4.4.4.4.,.4.4.4.4.4.,.7.s.d.d.d.Z.xX5Xv.j.0.7.2.  ",
"h.Z.3.` ` 6.f.0.7.,.4.4.7.,.,.:.:.4.4.4.4.4.4.4.4.4.4.4.4.4.4.4.4.4.4.4.4.4.4.4.4.4.4.4.,.4.4.4.4.4.4.4.,.7.4.,.4.4.4.4.4.4.,.7.7.7.s.z.n.x.n.5XxXm.2.,.  ",
"h.Z.3.q 0 { >.,.4.4.4.4.,.,.7.7.7.7.4.7.7.4.4.,.4.4.4.4.4.4.4.4.,.7.4.4.4.4.4.4.4.4.4.4.,.7.4.4.4.4.7.,.4.4.4.7.4.4.7.,.4.7.4.4.,.,.q.g.g.p.g.xXvXM.2.>.  ",
"]  . .{ -.:.7.,.4.4.4.4.,.4.b.4XM.7.:.7.,.4.4.7.4.4.4.4.7.,.4.4.4.4.4.,.4.4.4.4.4.4.4.4.4.4.4.,.4.4.4.4.7.4.4.4.4.4.4.4.4.,.4.4.7.,.-.] ] ]  .n.B.k.7.,.  ",
"7 7 ` ,.0.7.,.7.4.4.4.4.>.7.M.nXxXw.>.4.4.4.4.4.4.4.7.7.4.7.7.7.7.4.4.7.7.4.7.,.4.7.7.4.4.4.4.7.4.4.7.4.,.4.4.4.,.7.4.4.4.4.4.,.7.2.] 7 9 7 9 #.g.q.0.,.  ",
"| ] { 3.,.,.7.,.4.4.4.3.o.} t.4XM.0.>.,.7.4.4.4.4.4.,.,.,.,.,.,.,.4.4.4.,.4.4.4.4.,.4.4.,.7.4.4.4.4.,.4.4.4.7.,.4.4.4.7.,.4.4.7.2.,.{ ] ) 9 ) p.z.s.7.,.  ",
"2.q.,.4.4.,.4.4.4.4.7.:.` 9 [ 7.0.4.4.4.4.4.4.4.7.,.2.,.,.,.,.>.>.,.4.4.4.4.4.4.:.>.,.,.7.,.4.4.,.7.4.4.4.4.4.4.4.4.,.7.4.4.4.,.4.4.4.7.o.7 9 a.x.s.0.5.  ",
"7.w.0.4.4.7.4.4.4.4.7.:.| q } >.>.4.4.4.4.4.4.4.,.7.7.0.0.0.0.f.t.q.4.4.4.4.4.4.w.j.e.4.,.,.7.,.4.4.4.4.4.4.4.4.7.,.4.4.4.4.4.7.4.4.7.0.@.` ` 3.s.8.7.4.  ",
"2.q.,.4.4.4.4.4.4.4.4.4.:.;.,.3.7.4.4.4.4.4.4.4.,.7.s.d.d.s.x.C.zXv.>.>.7.7.;.>.m.zXV.0.,.7.4.4.4.4.4.4.4.4.4.4.4.4.,.4.4.4.4.4.7.,.4.4.:.>.-.| ` } q.4.  ",
"2.q.4.7.4.7.4.4.4.4.4.4.7.0.4.4.4.4.4.4.4.4.4.4.4.4.p.g.g.d.n.xXnXm.>.,.7.7.>.7.M.vXzXw.:.4.7.7.7.7.4.4.4.4.4.4.4.4.7.4.4.7.,.4.4.4.4.4.2.0.,.) 7 [ 0.7.  ",
"2.w.,.,.,.,.7.4.4.,.7.,.4.,.4.4.4.4.4.4.7.4.4.4.,.7.s.z.h.h.n.m.V.V.M.N.,.2.N.V.MX@Xz.0.:.7.4.:.:.,.,.3.4.4.4.4.4.4.4.4.4.4.4.4.4.4.4.4.4.4.,.o.} ;.7.7.  ",
"2.q.,.>.>.7.7.,.4.4.4.7.4.4.4.7.7.4.4.4.4.4.4.4.,.7.s.z.h.h.d.d.g.4XnXzX2.6.xX@X X.Xa.0.4.4.3.>.,.,.4.4.4.4.4.4.4.4.4.4.,.7.4.4.4.4.4.4.4.4.4.7.7.4.7.4.  ",
",.8.e.v.v.0.,.4.7.4.7.,.7.,.4.4.4.4.4.7.4.4.4.4.4.7.3.3.3.3.8.s.g.B.5XV.q.a.N.`.'.+X8.0.4.7.q.j.v.b.0.:.4.4.4.4.4.4.4.4.3.4.,.7.4.4.4.4.4.4.4.4.4.4.0.7.  ",
",.8.v.bXbXe.-.,.4.4.,.7.,.7.,.:.>.,.,.,.,.:.4.4.7.:.| q 0 q ] p.z.g.r.A.g.r.`.P.=X-Xa.6.4.s.g.V.bXzXe.>.4.4.4.4.4.4.4.4.4.4.4.4.4.4.4.4.4.4.4.4.4.4.0.3.  ",
",.2.v.cXxXv.q.0.7.4.7.4.4.7.0.e.w.7.7.w.e.0.4.4.7.,.[ q 0 8 ` q.g.r.G.Q.p.(.$XK.*X+Xa.0.8.f.g.V.bX4Xe.>.4.4.4.4.4.4.4.4.,.4.4.4.4.4.4.4.4.4.7.5.7.4.7.4.  ",
"2.q.s.n.B.C.xXv.,.:.4.,.;.;.v.zX4Xd.f.V.zXm.4.5.7.,.:.;.| w | p.r.(.G.r.`.XX*XL.#X.Xd.f.d.h.h.f.t.e.0.,.4.4.4.4.4.4.4.4.7.4.,.4.4.4.4.4.4.4.4.4.4.4.7.4.  ",
"2.q.q.p.n.xXnXm.:.,.7.7.>.7.m.nXxXz.k.xXnXM.4.>.6.,.0.8.o.q ` r._.G.T T XX*XK.*XOXW.g.h.d.h.h.8.,.:.,.,.7.4.,.7.7.4.4.4.7.,.7.4.7.4.4.4.4.4.4.4.4.4.7.7.  ",
",.q.q.d.h.B.C.n.s.8.4.7.n.M.V.C.B.z.d.n.M.b.4.4.2.2.0.6.1.,...`.OX_.T XX*XY.L.*X^.d.z.h.g.<.-.j.M.m.f.q.7.7.,.,.4.4.4.4.4.4.4.4.4.4.4.4.4.4.4.4.4.7.7.7.  ",
",.q.q.h.h.d.d.d.z.f.,.0.zXnXC.a.d.z.h.8.;.>.7.,.1.#.Q.T ).|.(.OX X( XX=X;X#XL.I.W.c.z.l.f.| w y.nXxXn.d.q.3.,.7.4.4.4.4.4.4.7.4.4.4.4.4.4.4.4.4.4.4.0.7.  ",
"2.p.2.8.p.f.g.p.8.0.,.0.V.xXB.d.d.8.3.,.:.7.2.#.S.].;XP.U.U.U.oX_.XX%X;X*XY.*XOX|..X.X-X.XD.X.j.xX4Xk.p.0.4.,.7.4.4.4.4.4.4.7.7.4.7.4.4.4.4.4.4.4.4.7.0.  ",
"2.w.-.q ) p.h.@.9 ` >.0.f.x.z.z.8.` q } ,.6.#.R.I.*X>XK.L.U.:XfXXX%X;X|. XU.;XhX>XU.>XhXG.Q.d.h.x.h.0.,.7.,.7.,.4.4.4.4.4.5.;.>.5.5.4.4.4.4.4.4.4.eXdXy.  ",
"2.s.o.q ) p.x. .q ` >.0.p.p.d.z.8.` ) >.w.#.S.}.%XL.=X>X=XY.%X#X X:X*X:X:X:X#X&XU.L.`.....#.x.g.p.8.7.,.,.7.,.7.4.4.4.4.0.0.0.q.6.4.4.4.4.4.5.6.eXiXjXu.  ",
"6.q.,.-.-.7.q.>.@.;.7.4.O.[ 3.z.d.3.p.M.MX,XJ.$X$X;X&X>X:X:X#XY.oX;X=X&X>XCX-X%XI.G.j 7 ) 3.h.8.[ { >.7.,.4.,.,.,.4.4.:.@.j.4X4Xz.s.8.5.4.&.u k aXNXmX!.  ",
"2.q.2.2.0.,.,.7.7.4.7.:.` 7  .d.z.d.x.@XoXY.J.'.#X*X>X#X$X;X#X:XoXI.&X=X=X&X&X.X( U ) w ) p.h.<.8 i >.7.4.,.3.,.4.4.4.>.;.m.vXbXn.g.s.&.u t ; G yXAXNXu.  ",
"2.q.2.6.6.,.,.,.2.:.{ }  .@.9.l.g.d.l.y.R.H.I.$X;XL.#XoX&XK.I.;X).[.I.:X>X=X#X=X;X(..._ } 3.s.>.| { >.7.0.w.s.s.q.4.4.b.m.M.C.V.z.:.a t - . N ZXNXAXNXu.  ",
"2.q.7.,.4.4.4.7.2.&.0 0 8.x.h.l.g.z.d.} l H.$XL.%X;X;X:X&XI.E T.{.jX( ( -X:X|.$XI.OX_.Q.1.2.,.,.,.7.:.7.f.x.z.h.f.4.4.4XnX4Xz.@.` $ . . . . N AXHXFXdXy.  ",
"2.q.7.,.7.,.7.4.7.;.` | 9.d.f.s.d.d.p.O.S.I.#X;X%X;X:X>XI./ [.[.kXkX}.R _.U.;X/ E /..XW.1.4.4.7.8.0.7.8.8.8.p.g.k.7.0.V.xXt.+.% B ~ F D D C H JXKXdX1.2.  ",
"2.q.,.,.,.7.4.4.,.,.:.>.3.7.7.0.7.7.2.>...Y I.#XoX%X&X:XXX_.jXBXVXVXkX}.T $X#XOXD.%.3.,.4.4.4.p.d.d.z.s. .y >.h.l.l.s.0.;.$ . . F qXqXiXiXyXSXKXGXe.3.0.  ",
"2.q.0.0.7.,.7.4.2.7.7.7.,.,.4.,.,.:.*.u.`.G.R $X&XU.Y.*X|./ [.kXBXVXVX[.).}.I.$XY $.6.4.4.5.4.q.l.d.z.d.{ w o.d.s.>.&.+ B N B N B B i.pXtXNXKXKXGXy.2.0.  ",
"2.q.2.,.,.7.,.4.,.7.4.,.4.4.4.,.0.} B dXu.Y R {.oX#X&X;XgX6X6XL gXDXlX~ ~.).).'.D.#.0.4.4.,.7.7.7.s.g.d.p.9.@.} i + . & 8XiXrXrXuXrXiXuXjXJXKXKXFXy.2.0.  ",
"3.w.4.4.4.4.4.4.4.4.4.4.4.4.7.0.0.[ F 9XB 3 4 Y }.#X>X_.hXKXLXPXlXVXVXPXfX).T G.D.#.1.2.,.2.4.,.,.0.d.z.k.j.' X 3 @ 3 2 f qXpXiXiXiXiXjXLXKXKXFXy.>.8.4.  ",
"4.8.4.,.4.4.4.4.4.4.4.4.4.4.3.u.0XH LXD 1 9XD I T '.hX).}.DXDXlXlXVXVXfX|.{.S.D.W.#.2.2.,.0.4.4.4.,.-.<.a % . D 8XB qXqX9XuXiXrXiXrXsXJXKXHXFXy.3.7.0.4.  ",
"7.q.4.7.4.4.4.4.4.4.4.4.4.4.7.*.F pXLXtXAXKXHXqXI ( ( ( }.kXlXVXDXlX}.XX).S.5.1.r.>.,.7.,.,.2.,.,.&.6 @ . C 9XtXiXqXiXaXiXiXiXqXZXSXLXKXHXFXt.>.0.4.7.7.  ",
"2.q.4.4.,.7.4.4.4.7.4.4.4.4.7.;.i H AXjXZXKXKXZXV W.}.I U }.lXDXkX( E OX).S.#.0.5.7.4.,.,.0.,.:.u e . G qXtXaXiXiXaXiXiXiXiXrXNXAXGXGXKXSXy.5.7.4.4.7.7.  ",
"2.q.0.,.4.4.4.4.4.4.4.4.4.4.6.+.N 9XsXD B sXuX~ * !.OX^ * ^ }.OX}.{.T G._.S.] 7.2.4.4.2.2.:.r 6 . . . N H F D D F D B N qXZXSXAXLXHXZX7Xu.<.4.7.4.4.0.7.  ",
"2.q.,.2.4.4.4.4.4.4.4.4.4.4.7.O.Z 7XG E.wXfX8X~ C ! '.I * 3 P P ^ kXkX_.R S.%.7.,.2.0.&.u r . . X X X . . . X . . + uXpXjXLXHXHXsXeXu.9 9.0.4.4.4.4.7.4.  ",
"2.q.7.4.7.4.4.4.4.4.4.4.4.4.3.7.o.y Z CXhXkXlXDXW !.fXP + ; * < < jXVX{.D.=.;.,.7.O.u r . . X X . . . + 3 + X N tXpXGXHXHXAXpXdXi.9 3.0.0.7.4.4.4.5.0.4.  ",
"2.q.4.4.4.4.4.4.4.4.4.4.4.4.4.7.4.7.0.^.oXkXlXVXwXH L . o = A ! 3 jXBX).F.$.6.&.u e . . @ @ . . . + 1 . . N 9XpXLXHXGXSXpXeXa ` 4.0.6.4.7.4.4.,.4.4.7.7.  ",
"2.q.4.4.,.4.4.4.4.4.4.4.4.4.;.{ o.5.4.>.hXVXVXVXVXwXA ~ ~ C ! hXj ~.jX/ l &.*.$ X . @ X . . . + ; . . D 7XpXHXGXGXSXsXeXp O.9.0.4.,.4.4.4.4.4.7.4.4.7.,.  ",
"0.q.4.4.7.4.,.4.4.4.4.4.7.0.{ q ` -.>.6.^.gXBXVXVXlXlXiX9XpX~ ! g j jXF K sXiXN $ + . . X + + . . D 7XsXHXGXLXSXsX0Xr o.4.4.4.4.4.7.4.4.4.4.4.4.4.,.q.7.  ",
"2.q.2.4.,.0.0.0.7.7.7.7.:.<.[ 7 ` e.t.0.#.^.gXBXDXjXyXH C qXrX7XN 4 wXC sXLXHXuX. . @ + + . . D H NXGXGXGXSXmX0Xu ;.4.6.4.5.4.4.4.,.4.7.4.4.4.4.4.4.7.7.  ",
"2.q.2.4.,.>.>.>.;.>.4.:.[ i q 7 O.4XzXv.' & W.gXfXjXG G 9XB NXHXrXd 3 ; NXHXLXdXB B @ . + N F SXGXLXGXAXmXH u 5.>.4.0.4.4.7.4.4.4.4.4.,.4.4.4.4.4.4.7.7.  ",
"7.q.4.,.,.,.,.,.4.4.4.5.` 0 0 q :.bXnX6.X . 1 2 O 0XH D 7XN yXtX3 h d o pXKXmXy.iXH X B J SXLXGXGXAXmXH ' :.&.6.7.4.4.4.4.7.7.4.4.4.4.4.4.4.4.4.4.4.7.4.  ",
"3.q.4.7.w.m.4XV.V.m.f.q.7.>.o.} :.v.t.@ . + v z . 7X8X+ 1 F tX2 d |.W o + SXKX9X4 1 H AXAXLXGXAXsXF *.>.&.7.7.4.4.4.4.4.4.4.>.4.4.4.4.4.4.,.7.4.4.4.0.4.  ",
"4.q.,.,.t.zXnXvXvXxXz.d.z.k.q.:.+.% $ X @ : n 2Xz 7X7X@ . 8XFXL g  X XW . ZXKX9XH AXAXGXGXAXsXF *.&.-.0.4.4.4.4.4.4.4.4.7.4.>.>.,.7.7.4.7.,.4.4.4.4.7.7.  ",
"0.w.,.{ >.N.M.M.4XV.l.d.z.l.j.&.= : o > : O * z o K L 1 o G aX4 5 V |.gX2 pXKX9X7XHXLXAXpXH *.&.-.0.0.,.4.4.4.4.4.4.4.4.,.e.v.v.0.,.,.4.4.4.4.4.4.2.7.7.  ",
"6.w.@.q q i i { 7.w.d.l.d.d.&.< x , : b x - - , O * = t o N 9X1 f 0XyXH 7XH sXtX3XZX7XsXu.` ;.6.,.,.2.7.4.4.7.4.4.7.4.5.-.v.vXcXj.,.7.2.2.4.4.4.4.4.0.4.  ",
"3.q.{ ` q q q [ ,.7.d.d.g.;.; : > x n <Xn b m b x O 3 c W ~.D 1 d iX~ 7XeXr sXsX4 H L 6.5.e.7.4.,.2.7.,.4.4.,.4.4.,.7.7.>.v.cXzXw.>.>.0.7.4.4.4.4.4.7.4.  ",
"2.q.,.-.>.8.p.s.d.s.7.7.&.1 : x b x 1Xn <X<X<Xz # * t *.S ~.G c 8XG X F *.% H H X v 2XZ :.5.4.4.4.4.,.4.7.,.6.2.4.4.4.w.s.z.m.x.} q o.,.,.,.4.,.,.,.7.,.  ",
"7.q.2.6.0.h.z.z.g.d.,.7.u o 1 b n = b 1X1Xb b = + . r ;.@.*.!.0X~ 1 . . . + . X M 2Xx 2 &.4.4.4.4.,.7.4.4.2.7.2.4.4.4.s.h.g.d.p.` 8 } 7.7.,.4.4.4.4.0.4.  ",
"2.q.7.,.0.q.s.s.d.d.s.&.t o O x M z , b b x # x - $ +.w.f.8.Z H O - , ; z z z M 1Xz O $ &.4.5.4.4.7.4.,.0.,.,.,.4.4.7.s.z.p.@. .} } ,.s.s.s.p.s.s.s.f.s.  ",
"2.q.,.,.,.,.,.w.l.l.l.r : x O x <X<Xb x x x x x , ' s.l.d.z.w.i p : : x b b n n b : . p :.4.4.4.4.,.,.,.>.>.>.:.>.,.7.s.z.3.q q -.7.s.d.h.d.g.g.h.d.z.z.  ",
"2.q.0.7.2.,.4.q.s.f.s.' 1 x , = v v <X<X1X<X1Xc *.q.s.l.g.h.s.8.#.r . - O - x , , - r 4.4.4.4.4.4.4.,.7.f.b.b.b.j.0.,.w.d.3.` | 7.w.d.h.d.h.d.g.g.g.z.d.  ",
"2.q.2.,.4.4.4.7.7.4.0.;.6 O x : O : v m m m c &.a.d.k.d.l.x.d.} q q % $ $ = : ; . e 6.0.4.4.4.4.4.7.;.w.4XbXcXbX4Xe.;.4.0.,.:.4.s.d.d.d.z.z.z.z.z.z.x.x.  ",
"7.q.4.4.4.,.7.,.4.4.-.t O @ X # x : + % c 4 *.5.d.l.g.d.g.g.8.` 7 q q ' 6 # # . # t O.-.,.,.4.4.,.7.>.0.V.bXbXnXzXj.,.7.4.7.7.8.d.z.l.d.d.d.s.d.a.f.d.d.  ",
"2.q.4.4.4.7.,.,.4.O.e 5 & # # . X e -.:.:.4.4.7.f.g.z.l.8.] ` q 9 | -.+.t g j W Q A A J *.,.4.4.4.7.>.0.t.j.V.nXxXn.p.7.4.7.s.d.d.d.z.z.p.] ] ] ] ] ] ]   ",
"2.q.7.,.4.7.4.0.4.t 4 g W W j 5 & ' 7.7.7.7.4.7.d.d.k.z.3.q 8 9 0 { ,.t j h E.hXE.! gX9XZ :.7.4.4.4.7.,.:.@.n.vXxXn.d.8.4.8.d.z.d.h.z.x.3.9 7 7 7 7 9 7   ",
"2.q.4.4.4.,.,.4.:.S g E.fX3XR.~.& e :.,.5.4.5.7.q.s.s.w.3.} | } } :.:.e j h ~.].h W A S 6.6.6.4.7.4.,.2.,.>.t.M.m.z.d.8.:.q.h.l.g.g.8.@.] 0 0 | } } } [   ",
"2.q.0.2.2.,.7.:.u g f !.0X!.].j & &.:.7.4.4.4.4.4.4.4.4.7.4.4.4.4.4.:.e j W W h E.].d S eXJ R.1.,.4.4.4.4.7.4.4.7.l.z.8.4.w.l.l.z.l. .7 7 9 9 -.2.0.0.2.  ",
"2.q.7.,.,.1.7.:.A j g S d j j $ ' 7.7.,.4.4.4.4.4.4.4.:.4.4.7.4.4.7.:.&.f & h f E..Xg W D f g S 1.4.4.4.4.4.4.;.7.s.f.q.:.0.s.d.f.d.@.` ` ` ` >.2.0.0.2.  ",
"2.q.,.7.2.2.,.,.S W A V W g $ w | ;.7.4.4.4.4.4.4.4.7.4.4.4.,.4.4.4.3.:.6 4 W j h W 5 W ].~.g A =.4.4.4.4.4.4.4.4.7.7.9.4.7.7.7.7.7.,.>.<.>.>.:.2.,.7.2.  ",
"2.q.7.,.2.2.,.p l W V g g 4 f k ) ;.7.4.4.4.4.4.4.4.4.4.4.4.4.4.7.:.7.<.6 j Q W h f V g ~.oXA S r.5.4.4.4.4.4.4.4.4.:.4.4.,.4.,.,.,.4.7.7.7.0.7.,.2.0.,.  ",
"2.q.7.,.4.2.:.& j W 4 W E.~.Q S { ,.,.,.4.4.,.4.4.4.4.,.7.4.4.,.4.,.,.:.% , d d 5 5 d # 4 ! 4 5 *.2.,.7.,.7.,.7.4.,.4.4.4.4.4.4.4.4.4.4.4.4.,.7.4.4.7.,.  ",
"2.q.,.,.4.0.<.& W h & ].CXCX].k ,.6.,.7.4.4.7.4.7.,.4.4.4.4.4.7.4.4.,.,.a t y u r u 6 k Z a u u o.7.,.6.7.,.7.,.4.7.4.4.4.4.4.4.4.4.4.,.,.,.4.4.4.4.0.7.  ",
"2.q.0.0.,.7.4.p g j 4 Q ].].! t ,.4.4.4.,.7.4.4.4.4.,.4.4.4.4.4.,.7.4.7.2.1.7.2.7.4.4.4.7.4.7.4.6.2.2.2.4.7.,.7.,.4.4.4.4.4.4.4.,.4.4.7.4.4.4.4.4.4.0.4.  ",
"2.q.,.2.4.4.7.;.p =.S p t k k a :.4.4.4.4.4.4.7.4.4.7.4.4.7.,.4.4.4.4.4.2.2.2.,.4.4.5.;.>.:.4.4.2.2.2.2.4.,.4.4.4.4.7.,.4.4.4.4.4.4.4.4.4.4.4.4.4.,.0.4.  ",
"3.w.7.4.4.4.4.7.7.7.5.7.7.7.7.7.4.4.7.4.4.4.4.,.4.4.7.,.4.7.4.4.4.7.4.,.7.,.7.,.4.5.0.j.j.7.4.4.4.4.7.,.4.7.4.4.,.4.4.4.4.4.4.4.7.,.4.4.,.4.4.4.4.4.7.3.  ",
"4.8.,.4.4.4.7.,.4.4.7.7.,.4.4.,.4.4.4.,.,.4.4.4.,.4.4.4.4.,.4.4.,.4.4.4.4.7.,.4.4.>.j.xXzXb.>.4.7.4.4.4.4.,.4.4.4.4.7.4.4.,.7.4.4.4.4.7.7.4.7.,.4.4.0.7.  ",
"7.q.4.4.4.4.,.4.4.,.4.7.7.,.4.7.4.4.7.4.7.4.4.4.7.4.4.4.,.4.,.7.4.4.4.4.,.4.4.0.4.>.b.bXbXb.>.>.0.,.4.4.4.4.,.7.4.7.7.4.7.,.7.,.4.4.4.,.7.,.4.4.7.,.0.4.  ",
"2.q.,.7.4.,.7.4.4.4.4.,.4.7.,.7.4.,.4.4.4.4.,.7.4.4.4.4.7.4.4.4.7.4.,.7.4.4.,.7.4.:.w.v.b.-.` o.7.4.4.7.,.4.4.4.4.4.,.4.4.4.,.7.4.4.4.4.4.4.4.4.,.7.0.4.  ",
",.q.,.7.4.4.4.4.4.,.7.,.4.7.,.,.4.7.4.4.7.,.7.,.4.,.4.4.4.,.4.4.4.4.4.4.4.4.7.,.,.7.,.2.;.) 7 [ 4.4.,.4.4.,.7.4.4.4.4.4.7.,.7.,.,.4.4.4.7.,.7.4.4.4.7.7.  ",
"0.q.4.,.2.7.4.4.4.7.,.7.,.7.4.7.4.,.4.7.4.4.4.7.4.7.2.7.4.7.7.4.4.2.7.,.7.4.,.7.4.2.2.,.>.} | o.4.7.4.4.4.7.4.4.7.,.,.7.,.7.,.7.7.4.4.3.,.7.2.4.4.4.7.4.  ",
",.s.4.7.7.7.0.7.7.7.7.7.7.7.7.7.7.7.7.7.7.7.7.7.7.7.0.7.7.7.7.7.7.7.7.7.7.7.7.7.7.7.0.7.0.2.7.2.7.7.7.0.7.7.7.7.7.7.7.7.7.7.7.7.0.7.7.7.7.7.7.7.7.7.q.4.  ",
"4.7.2.7.4.2.,.7.7.7.,.7.7.,.7.4.,.7.,.7.,.7.4.4.4.4.2.,.7.7.,.4.7.,.7.7.,.7.7.,.,.7.2.,.2.0.7.7.7.,.7.,.4.4.2.7.7.4.2.7.7.,.7.4.4.4.4.4.4.4.7.4.3.4.4.4.  ",
"                                                                                                                                                          "
};
