/* XPM */
static char *_c5e87bee3c745ac95cf436fb59479fa9HwqvPExksp0ntne[] = {
/* columns rows colors chars-per-pixel */
"77 77 244 2 ",
"   c None",
".  c #005C00",
"X  c #006600",
"o  c #026C02",
"O  c #076E0D",
"+  c #027303",
"@  c #09760A",
"#  c #10790C",
"$  c #0D7914",
"%  c #167C19",
"&  c #157916",
"*  c #116B0D",
"=  c #1E7D21",
"-  c #217D23",
";  c #277E18",
":  c #158219",
">  c #1F8322",
",  c #009036",
"<  c #218424",
"1  c #268529",
"2  c #2A862C",
"3  c #2B8B2E",
"4  c #248929",
"5  c #2E8C31",
"6  c #2E9232",
"7  c #2B9936",
"8  c #329335",
"9  c #369639",
"0  c #369A3A",
"q  c #3A9B3D",
"w  c #389539",
"e  c #358C37",
"r  c #39A23E",
"t  c #24A53E",
"y  c #498E2E",
"u  c #3D9E41",
"i  c #339B42",
"p  c #2D9243",
"a  c #3CA342",
"s  c #3EAB45",
"d  c #39A849",
"f  c #3DAF52",
"g  c #31AF52",
"h  c #32B153",
"j  c #30AF4E",
"k  c #459F46",
"l  c #529445",
"z  c #42A446",
"x  c #45A649",
"c  c #46AA4A",
"v  c #4BAD4E",
"b  c #42AB46",
"n  c #52AE4F",
"m  c #59AC46",
"M  c #44B34B",
"N  c #4AB24F",
"B  c #44B54B",
"V  c #5BB24D",
"C  c #44AE51",
"Z  c #4CAF50",
"A  c #4DA752",
"S  c #51AF51",
"D  c #5CAF51",
"F  c #4DB252",
"G  c #4DBB53",
"H  c #43B353",
"J  c #51B454",
"K  c #52BC56",
"L  c #54BB59",
"P  c #59BE5E",
"I  c #59B456",
"U  c #79AD4B",
"Y  c #6CB550",
"T  c #54BF61",
"R  c #7CBF67",
"E  c #3FC654",
"W  c #4CC154",
"Q  c #4ACA59",
"!  c #53C45A",
"~  c #59C35C",
"^  c #55CC5D",
"/  c #55CA5A",
"(  c #57D05F",
")  c #58D15F",
"_  c #4BD059",
"`  c #76CA5B",
"'  c #68C559",
"]  c #5DC362",
"[  c #5BCD62",
"{  c #59CC63",
"}  c #4CD365",
"|  c #56D161",
" . c #5AD362",
".. c #5CD965",
"X. c #41CE61",
"o. c #61C967",
"O. c #64CB6A",
"+. c #65C968",
"@. c #64D36B",
"#. c #63DA6B",
"$. c #63D268",
"%. c #6CD472",
"&. c #6DDB74",
"*. c #71DA77",
"=. c #73DC79",
"-. c #6ACF70",
";. c #6CE273",
":. c #73E47B",
">. c #76E77D",
",. c #65E96D",
"<. c #889A32",
"1. c #FC9C00",
"2. c #FE9D0C",
"3. c #FE9E18",
"4. c #D0A01E",
"5. c #FDA201",
"6. c #FDA80A",
"7. c #FEB506",
"8. c #FDA31C",
"9. c #FEAB1D",
"0. c #FCA715",
"q. c #FEB313",
"w. c #FEB31E",
"e. c #FEBB17",
"r. c #E9A717",
"t. c #C5AB3C",
"y. c #D3AE2E",
"u. c #E8AA2A",
"i. c #FEA524",
"p. c #FBA927",
"a. c #FEBC25",
"s. c #FEBD2A",
"d. c #FEB325",
"f. c #E4AD32",
"g. c #FEAE3B",
"h. c #FEAA34",
"j. c #E5B433",
"k. c #FEBA37",
"l. c #EBB02F",
"z. c #FE9F29",
"x. c #B8C639",
"c. c #FEC600",
"v. c #FDC901",
"b. c #FEC80A",
"n. c #FDCA1B",
"m. c #FEC717",
"M. c #FFD20C",
"N. c #D2CB39",
"B. c #D1CA23",
"V. c #FDCB24",
"C. c #FEC32B",
"Z. c #FECB2D",
"A. c #FEC326",
"S. c #FFD42A",
"D. c #FECD32",
"F. c #FECD3B",
"G. c #FEC336",
"H. c #FCD335",
"J. c #E2CF22",
"K. c #86AD4C",
"L. c #93AA42",
"P. c #98AF49",
"I. c #96BB4B",
"U. c #89BB4D",
"Y. c #AAAC42",
"T. c #B5B245",
"R. c #95B167",
"E. c #C5B447",
"W. c #CFB744",
"Q. c #FFAD43",
"!. c #FEBB44",
"~. c #FEB748",
"^. c #FEBC54",
"/. c #EEB145",
"(. c #FDBD68",
"). c #97C457",
"_. c #84C659",
"`. c #88D372",
"'. c #B5DC7E",
"]. c #D5CE4A",
"[. c #FECF43",
"{. c #FEC74A",
"}. c #FED144",
"|. c #FED14C",
" X c #FEC353",
".X c #FECC56",
"XX c #FEC55A",
"oX c #FECB5D",
"OX c #FED353",
"+X c #FED45B",
"@X c #FED857",
"#X c #E5D340",
"$X c #FECB67",
"%X c #FED564",
"&X c #FED965",
"*X c #FED66A",
"=X c #FEDB6D",
"-X c #FEC878",
";X c #FEDD72",
":X c #FEDD7C",
">X c #FED772",
",X c #FEE175",
"<X c #CED97E",
"1X c #7AE581",
"2X c #7CEB84",
"3X c #7EF187",
"4X c #AED58A",
"5X c #ABDF91",
"6X c #81EC89",
"7X c #80E985",
"8X c #84F58C",
"9X c #87F68E",
"0X c #89F691",
"qX c #8CFC94",
"wX c #8DFB96",
"eX c #91FF99",
"rX c #90FC95",
"tX c #88EF91",
"yX c #D1D888",
"uX c #FECE85",
"iX c #FEDE82",
"pX c #FED28B",
"aX c #FED587",
"sX c #FDDB99",
"dX c #E4DD84",
"fX c #CBE398",
"gX c #D4E491",
"hX c #FEE183",
"jX c #FEE28C",
"kX c #FDE395",
"lX c #FDE49B",
"zX c #FFEB9F",
"xX c #E2EA9B",
"cX c #DBE9A4",
"vX c #FDE4A2",
"bX c #FEE9A6",
"nX c #FEEBAA",
"mX c #FCE8A9",
"MX c #FEECB2",
"NX c #FEEFB9",
"BX c #FFF3B4",
"VX c #FFFBBA",
"CX c #E4EAA3",
"ZX c #FEDFA0",
/* pixels */
"  v K ^ #.8XqX&.v v F F Z F v F Z Z Z Z Z Z F Z Z F Z Z Z Z Z F Z Z F Z Z F Z Z F Z Z F Z Z F v F F v Z F Z Z F v F F v F F v F ^  .^ ^ &.qX9X~ z v Z Z   ",
"v ! K ^ #.8XrX*.N N F F F F F F F Z F F F F F F F F F F F F F F F F F F F F F F F F F F F F F F F F F F F F F F F F F F F F F G ^  .| ( ;.qXqXo.F v K Z   ",
"/ ..G 0 a o.%.~ v v Z Z Z N v v Z Z Z Z F Z Z Z Z Z F Z Z Z Z Z F Z Z Z Z Z F Z Z Z Z Z F Z Z Z Z v F v Z Z v F F F v Z Z Z v Z J K ^ ( ..;.:.:.>.o.Z v   ",
" .,.H @ O u v v Z Z Z Z Z v v v Z Z Z Z Z Z Z Z Z Z Z Z Z Z Z Z Z Z Z Z Z Z Z Z Z Z Z Z Z Z Z Z F F v F Z Z Z Z v Z Z Z Z Z Z Z Z v !  ...Q ..8XeX*.v v   ",
"M Q r 6 3 x Z v Z Z Z Z v v P O.o.F Z Z Z Z Z Z Z Z Z Z Z Z Z Z Z Z Z Z Z Z Z Z Z Z Z Z Z Z Z Z v Z Z Z Z Z Z Z Z Z Z Z Z Z Z Z v Z N B B s G ;.3X@.N v   ",
"+ + 3 v S N Z F Z Z Z Z v Z *.qX6XK c Z Z Z Z Z Z Z Z Z Z Z Z Z Z Z F Z Z Z Z Z Z Z Z Z Z Z Z Z Z Z Z Z Z Z Z Z v Z Z Z Z Z Z Z F F 8 + + @ : G  .L F v   ",
": : 6 v J v F v Z Z N Z x x %.0X2XJ c Z Z Z Z Z Z Z Z Z Z Z Z Z Z Z Z Z Z Z Z Z Z Z Z Z Z Z Z Z Z Z Z v Z v Z Z Z F F Z Z Z Z Z N v 9 : : + : E  .K F v   ",
"z M x v N v v F Z Z F v 5 > x ] ] Z Z Z Z Z Z Z Z Z Z Z Z v Z c c v Z Z Z Z Z Z v c v Z Z Z Z Z Z Z Z F Z F Z Z v Z Z Z Z Z Z Z S v c x 7 + @ W ..~ F v   ",
"F ~ F F Z Z Z Z Z v Z v 1 o 3 c v Z Z Z Z Z Z Z Z Z Z F F F F F F F Z Z Z Z Z Z Z F F Z Z Z Z Z v Z F v Z Z Z Z Z Z Z Z Z Z F v Z Z F F z $ : G  .! F v   ",
"Z K Z Z Z Z Z Z Z Z Z v u 9 z F Z Z Z Z Z Z Z Z Z Z G ! W G ] &.*.] c Z Z Z v v +.=.-.J v Z Z Z Z Z Z Z Z Z Z Z Z Z Z Z Z Z Z Z Z Z Z F c w 9 a a c F Z   ",
"Z K Z Z F Z Z Z Z Z Z Z F F F Z Z Z Z Z Z Z Z Z Z Z !  .| / #.9XeX%.z c Z F z c =.eX6XJ c Z Z F F F Z Z Z Z Z Z Z Z F Z Z Z Z Z F v Z Z Z J v = X 8 K Z   ",
"Z K Z Z Z Z Z Z Z Z Z Z Z Z Z Z Z Z Z Z Z Z Z Z Z Z W ( ( ^ $.>.3X*.O.P F J P o.:.8X:.J c F Z Z Z Z Z Z Z Z Z Z Z Z v Z F Z Z Z Z Z Z Z Z Z v 6 4 q F F   ",
"Z K v c c v Z Z Z Z Z Z Z Z Z Z Z Z Z Z Z Z Z Z Z Z !  .( ( ..)  .1XqX>.v S 7X0X1X .! J Z Z F c z A Z Z Z F Z Z Z Z v F v Z Z Z Z F v Z Z Z v v v v F F   ",
"v K J P L S Z Z Z Z Z Z Z Z Z Z Z Z Z Z Z Z Z Z Z Z K ^ / ! / Q ( 1XqX>.F J 2XqX;.^ W F Z F F F L K Z v v Z Z Z Z Z Z Z Z Z Z Z Z Z Z Z Z Z Z Z F Z F v   ",
"v G ] 1X1XP x Z Z Z Z Z Z Z Z v c Z v v Z v Z Z Z Z u 6 6 6 r ! ..#.&.../ / #.;.#.| ! S Z G / &.6X=.J c v F Z v Z Z Z Z Z Z Z Z Z Z Z Z Z Z Z Z Z Z F F   ",
"v N -.qXqX] x F F Z Z Z Z Z Z v Z Z v Z v Z Z Z Z v 5 X o X 3 G ( Q W _ _ _ Q E Q } ^ C F ~ ( >.eX6XP c v F Z F Z Z Z Z Z Z v F Z Z Z Z Z Z Z Z Z N F F   ",
"v G ~ >.>.:.&.] Z v Z Z c Z ] &.%.L ! @.*.+.Z v F v k 9 3 * : ! #.| =.fXfXfX4XE.y.y.I.L L | | $.=.O.J Z Z Z Z Z Z Z Z Z Z Z Z Z Z Z Z Z Z Z Z Z Z Z F F   ",
"v K G / ..8XrX*.v c Z Z z z %.eX8X| | 6XeX>.v A F v Z Z 6 O p 5XxXgXxXnXnXnXMXvXuXQ./.y.y._. .K c x Z Z Z Z Z Z Z Z Z Z Z Z Z Z Z Z Z Z Z Z Z Z Z Z F Z   ",
"N G G /  .2X8X%.F F Z F P ] =.8X2X| ^ :.6X%.v v S S M K P R.dXkX=XOXOX}.}.|.jXmXlXkXmX-XQ.u.r.E.+.] I F Z Z v F Z Z Z Z Z Z Z Z Z Z Z Z Z Z Z Z Z Z F F   ",
"v G I ) .. . . .| ! v J 1X0X1X.... .[ ! L J Z Z S n +.5XCX;X}.F.m.m.n.V.m.n.H.Z.V.=XlXkXvX-XQ.5.].7X} / K Z v v Z Z Z Z Z Z Z Z Z Z Z Z Z Z Z Z Z F F Z   ",
"Z K G ^ ^ Q / / | ! v J 2XqX:.Q Q ( / F z v Z v t `.cXkX=XZ.m.S.Z.s.a.s.9.p.e.q.e.e.7.F.>XkXvX-X^.W.).{ G Z v F Z Z Z Z Z F F Z Z Z Z Z Z Z Z Z Z Z F F   ",
"Z L x 6 0 /  .B 6 0 v F $.;.#. .! q 6 z Z Z S R 4XCXaXb.v.D.D.a.d.2.h. X X^.^.XX~.2.0.a.c.Z.iXNXZXQ.5.Y.H Z S v Z Z Z Z Z v v v Z Z Z Z Z Z Z Z Z Z F Z   ",
"F ~ u o $ W  .a X > v F ! ( |  .G % o w v v d 4XVX:Xv.Z.F.s.9.i.^.oX.XOX@X@X@X;X=XoXoXg.p.7.Z.%XZXZX~.1.Y.C Z F Z Z Z Z Z v v c Z Z Z Z Z Z Z Z Z Z F N   ",
"v K x 8 9 G ! b 5 q v F b b G | / a a o.*.{ K.dXiXc.Z.G.6.0.^.+X|.;X=XOXOX+X+X|.&X=X,X*XXXg.d.v.Z.lXZX~.p.Y.S Z Z Z Z Z x P %.%.! G F Z Z Z Z Z Z Z F F   ",
"v K Z F Z Z Z Z Z Z J v 2 * d  . .Q  .6XwX`.J.}.D.V.C.i.i.^.=X;X|.=X%X=X$Xh.oX}.[.[.}.;X;X=XXXd.v.;XBXsXi.9.P.b S Z Z Z u O.wX0X#.^ G F v N Z Z v F F F   ",
"F K Z F S v v Z F Z x z 6 4 b |  .^  .:.2X'.|.M.D.C.6.~.=X;X|.OX=X@X}.:XiX^.h.*X=X|.[.&X=X,X%X!.F.Z.iXmX(.5.E.I J Z Z L P &.8X3X$.^ L F v Z Z Z Z N F v   ",
"Z K Z Z Z Z Z Z Z k - > B ^ ^ ^  . .) z l cXzXF.n.d.~.=X;X;X+XF.%X[.%XhXhXiXh.oX%XOX;X;X;X=X=X=X+Xv.G.vXsX0.p.).Q Z Z *.8X1X#. .G c v v v Z Z Z Z Z F F   ",
"S K Z Z Z Z v F F k & % G  . .{ ^  .! 6 R.mXMXsX{.5.*X,X=X&XOX+X}.}.iXiXhXhXXXg.OX[.OXOXOX=X;X;X%XF.m.iXmX(.5.E.' Z S 1XeX1X^ W F Z Z F Z Z Z Z Z Z F F   ",
"Z K Z Z Z Z v Z Z c u u F K G G K L G I cXBXmXMX(.k.;X;X;XOX[.&X[.%XhXiXhXhX:XQ.&X+XF.M.Z.%X;X=X;XOXV.c.hXsXi.9.I.Q ~ #.:.[ 0 b *.1X#.! G F v Z Z F F v   ",
"Z K v F v F F Z Z Z Z Z Z Z v Z v Z F Y cXVXNXpXXX>X&X}.[.F.[.OX=XhXhXhXiXhX,Xh.Q.;X=X+X%X=X;X=X;X%X}.c..XvX-X1.W.` ^ [ | B X e 6XrX:.| ! J v v Z Z F F   ",
"Z K F v Z Z Z Z Z Z F Z Z Z v Z v v S x.&XvXmX(. X@XOXOX|.OX+X;XhXiXiXhXhXiXjX*Xh. X,X:X;X*X*X;X;X;X|.Z.V.iXpX1.l.` } G c s 7 c :.2X#.! K F v F Z Z F F   ",
"S K v F Z Z Z Z Z Z Z C Z Z Z Z S Z D N.V.H.G.i.XX=X:XiXiX:XhXhX,XhXhXhXhXiXiXhXiX;XhX:XF.d.{.%X*X;X=X}.c.*XuX1.l.I...a * a .. .| | L v v v Z v F Z F N   ",
"F K Z Z Z Z Z Z Z Z v F F Z Z Z v F m ].H.Z.7.h.$X&X;XhXhXhXhXiXiXhXiXhXiX:XhX:X;XhX:X%XOXG.s.w.~.,X=X}.c.;XuX1.i.y.' 7 X 8 ! / ! ! G Z v Z Z Z Z Z F Z   ",
"F K v Z Z Z Z Z Z Z Z Z v Z Z Z v v V B.M.D.d. X,XOXV.%XhXhX:XiXiXhXhX;X:XjXhX%X*X:X}.}.=X[.8.i.oX,X=X|.v.>XuX1.i.u.y $ + & < 8 Z K F F Z Z Z Z Z Z H Z   ",
"v K v F Z F F v Z Z Z Z Z Z v Z F Z J <X,XV.7. X,X=XOX[.:XiXhX=X:X:X=X;X;X*X;X*X+X%X%X[.n.w.i.$X;X=X=X[.c.;XuX1.p.4.# # % & O < z Z v Z Z Z Z Z v F J v   ",
"F K Z Z Z v Z Z Z Z Z Z Z Z F v J Z I fXBXkX$X X;X;X=X+X|.;X:X;X:X%X*XhX;XZ.[.=X@XF.+X}.q.p.oX;X=X=X=X[.c.>XpX1.i.4.# 3 y q 9 k c Z F Z Z Z Z Z Z v J N   ",
"v K v v Z Z Z Z F Z Z Z v Z Z F Z Z I fXBXBXuX~.,X=X|.}.@X%X%X=X+X%X+X%X;X*X|.+X|.V.m.q.i.oX;X=X;X=X:XjXZ.*XuX1.p.4.; u J F F F Z Z Z v Z Z Z Z F v F F   ",
"J K Z N Z v Z Z v Z Z Z F v Z v S Z D gXBXMXpX X=X;X+X[.|.%X&X}.V..XOXZ.[.|.%X|.n.D.s.h.$X,X=X=X=X=XlXvX[.D.k.3.i.4.y u J F F Z Z Z Z F Z Z Z Z Z Z F Z   ",
"J K Z Z Z F Z Z Z Z Z Z v F F J J Z m ].kXvXnX-X X;X;X=X%X=X.XZ.V.Z.F.Z.n.n.D.Z.D.Z.w.~.,X=X=X;X=X;XkX+Xv.Z.e.8.9.u.U f Z Z Z Z Z Z Z Z Z Z Z Z Z Z F N   ",
"v K Z Z Z Z Z Z Z Z Z Z F v c z x C V ].M..XjX(..X,X=X;X;X;X XA.Z.Z.V.D.D.D.A.Z.Z.Z.d.3. X=X;X=X=X=XkXiX+Xn.s.3.i.T.D Z Z Z Z Z Z v F Z Z Z Z Z Z Z F F   ",
"v K Z Z F v Z Z v Z Z Z J F u 1 8 z n N.S.V.b.m.!.*X;X=X=X=X|.V.Z.Z.D.Z.D.Z.D.Z.Z.Z.Z.0.z.%X;X=X=XiXbXMXbX=X6.8.u.U C v F Z Z Z Z Z Z Z Z Z Z Z F Z F F   ",
"S K v F v F Z F F F Z v F v q X - v G U.#XD.Z.Z.q.oX,X=X=X;X XA.Z.Z.D.s.9.A.Z.k.Z.Z.Z.9.i.%X;X=XiXmXnXbXNXpX2.8.j.U Z S v Z v F Z Z Z Z Z Z Z Z v N F v   ",
"N K F v Z Z F Z S v F v u 9 1 + w %.=.L U.H.Z.D.A.!.=X,X;XoXk.Z.D.Z.a.8.8.p.|.{.k.A.D.w.i.%X,X&XkXkX|.>XsX^.5.p.Y.F v Z Z Z Z Z Z Z Z Z Z Z Z Z Z Z F F   ",
"S K v F v x z z z x v c - X X O k tXrX-.m N.S.Z.Z.A.+X;X;X.Xn.G.a.9.i.{.%X$X=X=XoX~.k.6.i.%X=XjXmX%Xv.Z.{.2.8.f.U c N Z Z Z Z Z Z Z Z Z Z Z Z Z Z Z F F   ",
"Z K Z Z J o.+.o.o.] L H d 9 6 2 v 1X6X$.f I.H.S.C.H.iXhX=X.X9.2.d.~.%X=X,X;X;X,X;X=X.X8.h.%XjXmX:XD.G.D.e.8.9.Y.C Z Z Z Z Z Z Z Z Z Z Z Z Z Z Z Z Z F F   ",
"Z K Z Z P 2XqX0XqX2X ./ / ^ F x v  ... ./ V N.D.V.D.iXaXjX;X X~.*X;X,X;X=X=X=X=X;X;X=X X+XhXMXaXc.m.D.s.p.8.f.U Z n Z Z F v x c Z Z Z Z Z Z Z Z Z Z F v   ",
"Z L Z z J 1XtX8XqX2X..^  . .^ F K ! ! ^ ..s 2 y.S.D.n.[.kXmX,X=X;X=X=X=X=X=X=X=X=X&X=XhXkXbXMXlX>X@Xm.i.8.u.K.C Z Z Z Z v J L L Z Z Z Z F v F v F v F F   ",
"Z L z 3 5 k A I o.] ^ ( | ^ / ! / F G ^  .! 0 Y ].S.V.m.F.sXvXkX:X=X=X=X=X=X=X;X:XkXkXmXMXnXbXMXNX-X1.i.u.K.f n Z Z Z v x +.2X1XL v Z F Z Z v F v F F N   ",
"F ~ q @ X . . 3 z N ^ | ( ^ )  .{ C v ~ | ! S G ` ].H.H.n.[.*XlXlXkXkXlXjX;XlXkXvXlX*X*X%X>XbXMXpXh.2.i.t.F v S F v Z Z z %.wX0X] v v F v Z Z Z Z Z F Z   ",
"Z L x w 0 a b H K ! L ! ^ | ( | / F v G ! L K ~ Q ` ].S.D.Z.v.}.%X%X+XiXlXlXlX*X+X[.v.v.b.v.>XpXh.1.p.y.U Z F v Z Z Z K G o.:.&.c 6 z F F Z Z Z Z Z F Z   ",
"F L Z Z F ^  .[ ) / Z F /  . . ./ F Z Z v K ^ ^ ) ( Y t.j.D.D.V.v.v.c.Z.|..X[.m.v.V.D.D.D.a.p.i.1.f.U Z Z Z Z v Z Z Z ! ^  .../ 4 X 9 Z v Z v Z v Z F Z   ",
"Z L Z Z F ~ ^ ^ ) / F F ! ! / ! ! Z v v v G | | / / K H U.f.e.A.C.D.H.S.n.m.V.D.G.Z.s.A.p.8.0.i.t.K.f Z S F F Z F v Z !  .Q W s 5 1 z K G F G F F G L F   ",
"Z K Z v Z F F !  .| { ^ G F F F F Z Z v F L | ^ F F ~ ^ _ _.T.u.p.A.s.s.s.s.s.s.A.d.3.8.8.u.t.K.f Z Z v v v c v c Z F ! ..B 4 3 k x G ^ ^ ^ ^ ^ ^ ^ ) ^   ",
"Z K v F Z v v K ^ ^ ^ | F Z Z Z v Z F v v G [ ! F v !  .^ { X.).Y.T.p.8.8.8.8.8.8.8.i.t.Y.P.f f n Z Z F Z J J J J F Z !  .c $ - v K !  . .( ( ) |  ...^   ",
"Z K F v Z Z v J K F F G F Z Z Z Z Z Z Z F F G K / / ! ( ^ ..~ d , 0 U <.L.L.L.L.L.L.L.D j f J n Z Z c J %.2X1X2X=.L c F K v k z G ! ^ ) ^  .) |  .( ..(   ",
"Z K v F Z Z Z Z Z Z Z Z Z Z Z Z Z Z Z Z Z v Z F ^ ) [ ^ ( ..! 5 * o O : j h g g g g h C n n v Z Z F x I 2XeXrXeX6XP x v Z Z v F /  .| ^ (  . .(  . ...(   ",
"F G Z Z Z Z Z Z v Z Z v Z Z Z Z Z Z Z Z Z Z v F ^ (  .^ W B r < o 2 y k n S S n n n n Z Z Z Z Z Z F c J -.=.2XqX6X[ H F Z F K ! |  .)  .W B z b b b B b   ",
"F L Z Z Z Z Z Z v F Z Z c c v Z Z Z Z Z Z Z v J ^  .|  .M = o + @ w N v v Z Z S Z Z F v Z Z Z Z Z F v Z Z v %.eX0X#./ K v K ^ ( ^ ^  . .G % $ $ # $ # &   ",
"Z K Z Z Z Z Z Z F Z Z Z L ] L v Z Z Z Z Z Z v F ! ! ^ ^ N 2 % < 2 u S J v F v Z Z Z Z v Z F v Z Z Z Z Z c z o.6X1X .^ K v K ^  .^ ) / W s @ + % = > > %   ",
"Z K Z Z Z Z Z Z F Z v F 1X0X%.v v Z Z Z Z Z Z Z F F F F F c x x c v N N Z Z Z Z Z Z Z F Z Z Z Z Z Z v F Z Z J P ] |  .G Z K ^  . .| s < % + $ a Z c v c   ",
"Z K F v Z Z Z Z Z Z c J 7XwX*.c v Z v Z Z Z Z Z Z Z Z v Z J Z F J Z Z Z Z Z Z Z Z Z Z Z F Z Z Z Z Z Z Z Z Z v x F / | F v G { ^ | | r O O @ % s F S J F   ",
"Z K v F Z F Z Z Z Z Z Z o.%.J 1 8 v F Z Z Z Z Z Z Z Z Z F v v n v Z Z v Z Z Z Z Z Z Z Z v Z Z Z Z v Z Z Z Z Z v F G L F v F G K L F b u k u u A Z Z F Z   ",
"F K F v Z Z Z Z Z Z Z v v v 8 o = c Z Z Z Z Z Z Z Z Z Z Z v Z v v v Z F Z Z Z Z v Z Z Z Z Z Z Z F Z Z Z Z Z Z Z Z Z Z Z Z Z Z v v Z Z F F F Z Z Z Z F F   ",
"v K Z Z Z Z Z Z Z Z Z Z v v u 5 9 v Z Z Z Z Z Z Z Z Z Z Z v F Z v F Z Z Z Z Z Z F Z Z Z Z Z Z Z v Z Z Z Z Z Z Z Z C v Z Z v v Z v Z Z F Z N Z Z Z F F Z   ",
"F K Z Z Z Z Z F Z Z Z Z F F Z Z Z Z Z Z Z Z Z v Z Z Z Z Z Z Z F Z F Z Z Z Z Z Z Z Z Z Z Z Z Z Z Z Z Z Z Z Z Z Z v Z Z Z F v Z Z Z Z Z v v v v F Z Z F N   ",
"N K Z Z Z Z Z v Z Z Z Z Z Z Z F Z Z Z Z Z Z Z F Z Z Z Z Z Z Z v Z Z Z Z Z Z Z Z Z Z Z F Z Z Z Z Z Z Z Z Z Z Z Z Z Z Z Z Z Z v F Z Z Z Z F Z Z Z Z Z F F   ",
"S K Z v Z Z Z Z v Z Z Z Z Z Z v Z Z Z Z Z Z Z Z Z Z Z v Z Z Z Z Z Z Z Z Z Z Z Z Z Z v c c Z Z Z Z Z Z Z Z Z Z Z F Z Z F Z Z Z Z Z F v Z Z Z Z Z v Z F Z   ",
"Z K Z F Z Z Z Z F Z Z Z Z Z Z v v Z Z Z Z v F Z Z Z Z F Z Z Z Z Z Z Z Z Z Z Z Z Z Z Z F F Z Z Z Z Z Z Z Z Z Z Z v Z Z v Z Z Z Z Z Z Z Z Z Z Z Z F F F Z   ",
"F K v Z F Z Z Z F v Z Z Z Z Z Z Z Z v Z Z Z Z Z v Z F v F Z Z Z Z Z Z Z Z Z Z Z Z c P =.=.P v v F Z Z Z Z Z Z Z Z Z Z Z Z Z Z Z Z Z v F Z Z Z Z v Z F N   ",
"v K F Z v Z Z Z Z Z Z Z Z Z Z Z Z Z F Z Z Z Z Z F Z Z Z v Z Z Z Z Z Z Z Z Z Z F Z c o.wXeXO.c Z F Z Z Z Z Z Z Z Z Z Z Z Z Z Z Z Z Z Z Z Z Z v Z F v F F   ",
"S K F Z Z v Z Z Z Z Z Z Z Z Z Z Z Z Z Z Z Z F Z Z Z F Z Z Z Z Z Z Z Z Z Z Z Z Z Z c P 1X1XJ q z Z Z Z Z Z Z F Z Z Z Z Z Z Z Z Z Z Z Z Z Z Z F Z v F F Z   ",
"N K v Z Z F Z Z Z Z Z Z Z Z Z Z Z Z Z Z Z Z v Z Z v v Z Z v F Z Z Z Z Z Z Z Z Z Z Z Z L Z 3 + 8 Z F v Z Z Z Z Z Z Z Z Z Z Z Z Z Z Z Z v Z F v Z F F F Z   ",
"Z K Z Z Z Z Z Z Z Z Z Z Z Z Z Z Z Z Z Z Z Z Z Z Z F Z Z Z Z Z Z Z Z Z Z Z Z Z Z Z v v v x 3 % w Z Z Z Z Z Z Z Z Z Z Z Z Z Z Z Z F Z Z Z Z Z Z Z Z Z F v   ",
"Z K Z Z Z Z Z Z Z Z Z Z Z Z Z Z Z Z Z Z Z Z Z Z v Z Z Z Z Z Z Z Z Z Z Z Z Z Z Z Z v v J Z x z c Z Z Z Z Z Z Z Z Z Z Z Z Z Z Z Z v C Z Z Z Z Z Z Z Z F Z   ",
"S / J K K K K K K K K K K K K K K K K K K K K K G K K K K K G K K K K K K K K K K K K K K L L K K K K K K K K K K K K K K K K K K K K K K K K K K K ~ v   ",
"  F Z N v Z v Z Z v Z v v v Z v v v Z v Z v v Z Z Z Z v v Z Z Z v Z n v v Z v v Z v v v v J N Z Z v Z Z v v Z v Z v v Z Z v Z v Z v v v Z v Z v v Z v     ",
"                                                                                                                                                          "
};
