/* XPM */
static char *de889f2e858d45a9895e2abe6b733428Qvxow4e68v8z8GzP[] = {
/* columns rows colors chars-per-pixel */
"77 77 220 2 ",
"   c None",
".  c #070305",
"X  c #0E130D",
"o  c #11170F",
"O  c #12180F",
"+  c #151C12",
"@  c #171D14",
"#  c #1A2216",
"$  c #1D2619",
"%  c #1E291A",
"&  c #222C1D",
"*  c #24301F",
"=  c #273321",
"-  c #293523",
";  c #2C3A26",
":  c #2E3D28",
">  c #313F2A",
",  c #272C21",
"<  c #005A00",
"1  c #016501",
"2  c #016C01",
"3  c #017402",
"4  c #0A750B",
"5  c #0D7414",
"6  c #127513",
"7  c #127B15",
"8  c #1B7C1C",
"9  c #18781B",
"0  c #33432C",
"q  c #35492E",
"w  c #3A4C32",
"e  c #384930",
"r  c #3E5335",
"t  c #385F34",
"y  c #2E4328",
"u  c #1E7C21",
"i  c #3E6539",
"p  c #3A743A",
"a  c #276C29",
"s  c #405537",
"d  c #425639",
"f  c #455C3B",
"g  c #485F3E",
"h  c #49613F",
"j  c #45653D",
"k  c #407E36",
"l  c #4C6441",
"z  c #4E6943",
"x  c #516C46",
"c  c #546E48",
"v  c #5A6F4C",
"b  c #497A44",
"n  c #56734B",
"m  c #59764D",
"M  c #5B794E",
"N  c #5E7C51",
"B  c #4B5F40",
"V  c #1A821E",
"C  c #1F8223",
"Z  c #228325",
"A  c #25852A",
"S  c #2B8C2E",
"D  c #248928",
"F  c #2E8D31",
"G  c #398839",
"H  c #2D9432",
"J  c #2C9833",
"K  c #329336",
"L  c #369539",
"P  c #399B3D",
"I  c #359A3A",
"U  c #2C942F",
"Y  c #38A33E",
"T  c #448D3C",
"R  c #3D9D41",
"E  c #3F9644",
"W  c #3F8140",
"Q  c #3DA443",
"!  c #3EAB45",
"~  c #3EB045",
"^  c #498B47",
"/  c #52884C",
"(  c #479B48",
")  c #52934C",
"_  c #5D8652",
"`  c #5B9353",
"'  c #5C9D55",
"]  c #579C53",
"[  c #638355",
"{  c #658A58",
"}  c #6A8C5B",
"|  c #658857",
" . c #6C925E",
".. c #649C5B",
"X. c #67975B",
"o. c #70905F",
"O. c #42A446",
"+. c #45A649",
"@. c #4BA54E",
"#. c #46AA4B",
"$. c #4AAD4E",
"%. c #40AE46",
"&. c #45B44C",
"*. c #4AB14F",
"=. c #46BA4D",
"-. c #4CAF50",
";. c #4FA650",
":. c #5AA355",
">. c #53AD54",
",. c #59AD57",
"<. c #5CAD59",
"1. c #56A353",
"2. c #4DB151",
"3. c #4DBA53",
"4. c #52B455",
"5. c #52BC56",
"6. c #5CB35B",
"7. c #55BC5A",
"8. c #5ABC5D",
"9. c #55B458",
"0. c #50A44F",
"q. c #64A45C",
"w. c #62AD5D",
"e. c #6BA55F",
"r. c #63B35E",
"t. c #6F9460",
"y. c #6F9C61",
"u. c #729461",
"i. c #749C65",
"p. c #7A9D69",
"a. c #6BA560",
"s. c #6CAC62",
"d. c #68AE63",
"f. c #74A465",
"g. c #72AD66",
"h. c #7CA46B",
"j. c #7CAB6C",
"k. c #77AA69",
"l. c #66B161",
"z. c #6BB263",
"x. c #65BB62",
"c. c #6DBC68",
"v. c #71B267",
"b. c #75B46B",
"n. c #7BB26D",
"m. c #76BB6C",
"M. c #78B970",
"N. c #4DC255",
"B. c #4EC956",
"V. c #51C257",
"C. c #53C45A",
"Z. c #5AC35F",
"A. c #55CC5D",
"S. c #58CE5F",
"D. c #57D05F",
"F. c #58D05F",
"G. c #5DC463",
"H. c #5ACC61",
"J. c #57CF60",
"K. c #57D160",
"L. c #59D261",
"P. c #5DDA65",
"I. c #61C565",
"U. c #61CA67",
"Y. c #64CB6A",
"T. c #69CD6C",
"R. c #6AC56A",
"E. c #73C66D",
"W. c #64DB6C",
"Q. c #67D36C",
"!. c #7DC874",
"~. c #6DD573",
"^. c #6ADD72",
"/. c #74DC7A",
"(. c #73D877",
"). c #6DCB70",
"_. c #5FE168",
"`. c #6DE375",
"'. c #73E37A",
"]. c #75E67D",
"[. c #80A96E",
"{. c #80B16F",
"}. c #83AD71",
"|. c #88AE74",
" X c #85B373",
".X c #89B575",
"XX c #84BB74",
"oX c #8CBC79",
"OX c #91BD7C",
"+X c #8CC47B",
"@X c #84CC79",
"#X c #87D27B",
"$X c #93C37F",
"%X c #7AE582",
"&X c #7CEA84",
"*X c #7EF085",
"=X c #9BCC85",
"-X c #97C882",
";X c #9EDB8A",
":X c #96D884",
">X c #8FDD82",
",X c #A5DA8E",
"<X c #A1D58A",
"1X c #A8DE90",
"2X c #A0CF89",
"3X c #83ED8A",
"4X c #85E888",
"5X c #9AE289",
"6X c #84F48C",
"7X c #88F68F",
"8X c #89F791",
"9X c #8DFC95",
"0X c #8CFC95",
"qX c #92FE9A",
"wX c #A2E38E",
"eX c #ABE493",
"rX c #AAE994",
"tX c #B3EA9A",
"yX c #B7F29E",
"uX c #ACF598",
/* pixels */
"$.-.C.K.`.0X7XG.#.$.-.-.-.2.-.-.-.-.-.-.-.-.$.2.$.-.-.$.-.-.-.$.2.-.-.$.4.-.$.2.$.2.-.-.-.-.-.-.-.-.-.-.-.-.-.-.$.4.-.-.-.$.$.5.K.K.A.F.&X9X].2.+.-.5.    ",
"$.-.V.A.`.0X6XG.#.-.-.-.-.$.-.2.-.2.-.-.-.-.2.-.2.-.-.2.-.-.-.-.-.-.2.$.$.$.-.-.$.$.-.-.2.-.-.2.-.-.4.$.2.$.-.-.$.$.-.-.-.-.-.5.J.K.A.A.].9X%X7.$.-.5.    ",
"C.C.#.I 2.Q.T.7.$.-.-.-.-.-.$.$.$.-.-.2.$.-.-.-.-.-.-.-.-.-.$.2.-.-.-.2.$.2.-.-.$.4.-.2.$.2.-.$.2.$.$.$.$.2.-.-.-.-.-.-.-.-.-.4.5.5.A.F.^.`.`.].(.8.3.    ",
"P.F.Y 1 Z +.$.$.-.-.-.-.-.$.$.#.$.-.-.$.2.-.-.-.-.-.-.-.2.$.2.-.-.-.2.$.2.$.2.-.2.$.2.$.2.$.-.-.-.2.$.2.2.-.-.2.*.-.-.-.-.-.-.$.$.2.A.L.F.A.`.9X8XI.*.    ",
"=.&.P A L $.$.$.-.-.-.-.$.2.G.T.Z.$.$.-.2.$.-.-.-.$.-.-.-.-.-.-.-.-.-.-.-.-.-.$.-.-.-.-.2.$.-.-.$.2.*.$.2.$.-.$.-.-.-.-.-.2.-.-.-.$.*.=.=.~ A.*X&XC.*.    ",
"3 3 P 2.2.2.2.-.-.-.-.-.#.7.*XqX(.$.$.-.-.-.-.-.-.2.-.-.-.-.*.$.-.-.-.-.-.-.$.4.-.-.-.-.-.2.-.-.-.-.>.*.-.2.-.-.$.-.-.2.-.$.2.$.2.#.C 3 4 3 J A.K.3.5.    ",
"7 7 R 2.2.-.-.-.-.-.2.-.Q 4.%X8X~.$.$.2.-.-.2.-.-.-.-.2.-.>.*.>.>.*.$.2.-.*.$.$.*.-.>.-.-.-.-.-.-.-.-.-.$.-.-.-.4.$.2.$.-.-.-.$.2.#.D 7 4 3 J A.S.5.5.    ",
"O.O.$.2.-.-.$.2.-.-.2.Q Z S 9.G.7.$.$.-.-.-.$.2.-.-.$.$.$.$.$.#.$.$.-.-.-.$.4.$.$.#.$.-.-.-.-.-.-.-.-.-.2.-.-.-.2.$.$.2.-.-.-.-.$.$.#.O.D 2 J F.K.4.4.    ",
"2.2.2.-.-.2.-.-.-.-.2.( 4 4 R $.$.$.-.-.-.-.2.$.2.2.*.2.2.2.2.2.2.2.-.-.-.-.2.2.2.2.-.-.$.$.-.$.2.$.2.$.-.-.*.2.$.2.$.4.$.$.2.$.-.-.2.4.K 2 J F.J.2.5.    ",
"2.-.-.-.-.$.-.-.-.-.-.+.P R #.$.$.2.-.-.-.-.*.>.$.2.5.C.V.V.U./.).9.$.$.-.2.+.9.~./.G.-.>.4.4.$.-.2.$.*.-.-.-.*.2.$.-.2.$.2.-.2.-.-.2.-.Q L P Q ! $.5.    ",
"-.-.-.-.-.-.-.-.-.-.-.-.2.2.-.-.2.$.-.-.-.2.*.$.$.4.A.F.A.A.`.9X!.' O.$.2.-.R 5.&X8X~.<. Xb.>.$.>.2.-.>.-.-.*.*.$.2.*.$.-.2.$.4.2.-.-.-.-.4.R 2 4 O.C.    ",
"-.-.-.-.2.-.-.-.-.-.-.-.-.-.-.-.-.-.-.$.2.$.-.$.$.3.A.F.A.A.^.3X(.R.R.b.>.7.G.R.M.M.M.j.}..Xk.b.r.$.-.*.$.$.r.#Xx.#.>.*.-.$.$.$.-.-.$.-.-.2.O.D F O.7.    ",
"-.$.$.+.$.-.-.-.-.-.-.-.-.-.-.2.-.-.-.$.-.2.2.$.$.5.A.F.F.F.F.F.).4X4XM.$.c.@XM.u.u.y.XX-Xd.d. Xj.w.-.w.<.$.6.@Xr.$.>.-.-.2.$.2.-.2.-.-.-.-.$.$.$.-.5.    ",
"-.-.4.7.9.-.-.-.-.-.-.-.-.-.-.2.-.-.-.4.4.$.2.$.$.4.V.A.7.8.A.Z.b.+X4X(.@.g.h.{ a.s.-.R.>X2.$.x.n.g.w.g.r.$.*.#.*.$.*.-.-.-.2.$.-.-.-.-.-.-.-.2.2.-.5.    ",
"$.-.~.&X~.-.$.-.-.-.-.-.-.-.-.$.$.$.$.$.#.$.$.2.*.+.L U ) ` *.m.).r.$XwX_ n M i 8.G.2.@.2.V.H./.%XE.n.,.2.2.$.4.2.*.-.-.2.$.-.-.-.$.-.-.-.-.-.-.-.-.5.    ",
"#.2.%XqX&X$.$.-.-.-.-.-.-.-.-.-.-.2.$.-.$.$.$.$.4.( u T k G e.Z.4XeX<Xh.x s q w b / b l p V.P.6XqX/.,.$.2.>.$.2.$.2.-.-.-.-.-.-.-.-.-.-.-.-.-.-.-.-.5.    ",
"$.-.Q.].].(.~.5.$.-.-.-.#.2.T./.U.3.G.~.~.8.$.2.-.@.` ) G e.=X5X-X|.t.z r d w > > s w s l ) H.c.M.G.-.-.-.6.s.>.-.-.-.-.-.-.-.-.-.-.-.-.-.-.2.$.2.-.5.    ",
"$.-.V.A.`.9X7XG.O.-.-.$.Q 4.&XqX%XB.W.8X9XY.#.-.-.-.q.1.s.,XtX,Xt.; - f d w q & & * & y d r ^ ` ] +.-.-.$.6.s.9.-.-.-.-.-.-.-.-.-.-.-.-.-.-.$.2.-.-.5.    ",
"$.2.V.A.W.6X&XH.2.2.-.9.G.Y.%X7X`.A.P.&X&XG.$.;.-.-.,.M.,XrX#X{ w f z l f ; o $ + @ $ $ = y . p 6.7.2.2.2.-.-.*.-.-.-.2.-.-.-.$.-.$.-.-.-.-.-.-.-.-.5.    ",
"$.$.C.L.K.W.L.J.J.5.+.I.3X6X^.K.L.L.J.8.9.2.*.' ..>.X.-XtX:X#.j l h l g - @ # @ $ , = - r m e d b.^.K.C.9.2.-.2.-.-.-.-.2.-.-.2.-.-.-.-.-.-.-.-.-.-.5.    ",
"$.-.5.A.A.A.B.A.J.5.+.U.7X7XP.N.A.C.V.$.+.-.-.' t.X.9.#X=X XX.i.N f f - $ @ O $ : > - r n N t.[.-X/.K.N.!.>X#.2.-.-.-.-.$.2.2.2.-.-.-.-.2.$.-.-.-.-.5.    ",
"-.2.R H ! K.A.Q H Q -.7.^.`.P.F.=.H I $.-.-.-.' } w.#XwX>Xx.j.t.x z d + * $ @ = - ; ; s x x _ } d.H...+.>XyX!.2.$.-.-.-.$.$.$.$.-.-.-.-.-.-.-.-.-.-.5.    ",
"2.$.S 1 J L.A.Z 1 L -.3.B.D.K.K.Q 1 u Q -.$.*.:.1.2.eXeX!.w.t.z f f q $ & & $ * & & - e r d f d ^ d.k.;.x.;XeX!.9.-.-.2.2.2.$.$.-.-.-.-.-.-.2.-.-.-.3.    ",
"-.-.R F Q C.5.P F O.2.2.! &.C.K.=.Q *.Q.~.8.@.>.$.6.wXOXt.[ f f z w X $ @ $ $ & = , & ; > 0 m z { .Xj.w.! E.rXwX8.$.2.$.-.G.(.G.5.5.2.-.-.-.$.2.-.-.5.    ",
"-.-.-.-.-.-.-.-.-.2.2.O.u u 2.P.J.B.^.8X0XR.X.' $.9.-Xh.m B l l l w @ @ # # & = = = & - 0 0 c n } j.t.u.) E.;Xx.-.-.-.Q $.%X0X&XK.A.2.-.2.2.2.$.-.-.5.    ",
"-.-.-.2.-.$.-.-.-.@.+.R A H 3.L.J.A.Q.%X%XG.X.' *.+.z N M d l l 0 w r + + $ % & % & $ = 0 0 l c } h.h.i.1.,. X>Xx.$.9.8.G.%X7X].A.C.2.2.$.-.-.-.-.-.5.    ",
"-.-.-.-.-.-.-.2.-.L 9 J N.A.A.J.L.L.C.E G Q y.' 9.z.x { p.{ l l d w : + @ $ $ $ $ $ % = : 0 r d } }.}.j.R.Y.=XtXR.Q G.&X6X`.P.J.-.$.-.-.-.-.-.-.-.-.5.    ",
"-.-.-.-.-.-.-.2.-.L 2 J A.L.J.A.J.L.&.u 1 R t.' 0.t.t.h.j.} l r r ; . # # # $ & % % & = - : 0 0 m p.j..X] l.yXrXR.! G.7X0XW.B.3.2.-.-.-.-.-.-.-.-.-.5.    ",
"-.-.-.-.-.-.2.-.-.O.R O.2.5.3.5.3.5.2.Q R ;.t.<.( l } j.} d f = & * # $ $ @ $ $ % % % = = - 0 0 r [ [.|.v { tXwXY.3.H.`.`.3.K 7.%X'.H.B.2.-.-.-.-.-.5.    ",
"-.-.-.-.-.-.-.-.-.-.-.-.-.-.-.-.-.-.-.-.;.y.j.l.;.j.j.}.} f f , e w X % $ $ $ # $ $ , = = = 0 : r N h.}.i.-XwX~.L.J.J.K.J.H < 6.qX7XW.A.5.-.$.-.-.-.5.    ",
"-.-.-.-.-.-.-.-.-.-.-.-.-.-.$.$.-.-.-.-.>.t.}.z.W z h. X} f B - = - + $ $ # $ $ $ $ % * - - - > q f [ h.k.=X5X3.N.K.A.&.! Q J G.&X].H.V.3.-.-.-.-.-.5.    ",
"-.-.-.-.-.-.-.-.-.-.-.-.2.-.2.-.-.-.-.$.;.y.p.<.( { h.n.} f B - X # @ + @ + # $ $ $ $ & - = - : > q c h.p.-X:X5 Q P.C.A u 3.P.L.K.J.2.-.-.-.-.-.-.-.5.    ",
"-.-.$.-.2.-.2.$.-.-.-.-.-.-.-.-.-.-.-.2.;.X.t.] 6.oX}.}.t.d r & + # + o + + + + # # $ & = - - : : r N h..X<X,Xq.R C.=.9 3 #.A.A.A.N.2.$.-.-.-.2.$.-.5.    ",
"-.-.2.-.$.-.-.-.-.-.-.-.-.-.-.-.-.-.-.-.>.i.i.' ,. Xh.h.} w % $ # + + o O + + + # # $ % = - - : ; r | h.-XeXeX#XT D S 4 3 V A P 4.4.2.$.-.-.-.-.2.$.5.    ",
"-.-.-.-.2.$.-.-.-.$.$.2.-.2.-.-.-.-.-.$.9.+XOX:.6.[.N l z d % $ # + o o X + + + + # $ $ & - - - - w M h.[.=X;XU 3 3 3 V 8 6 6 F $.-.$.-.-.-.-.-.-.-.5.    ",
"-.-.-.-.-.2.-.-.-.2.-.-.2.$.-.-.-.-.-.2.,.XX=Xv.9. Xc r z r # $ $ O o o X + + + + @ # $ % & = = - w m h.f.=X5XV 3 3 T r.( I I ( -.-.-.-.-.-.-.-.-.-.5.    ",
"-.-.2.$.$.2.-.-.-.-.-.2.-.-.-.-.-.$.2.2.>.j.=XE.1.i.c h l f w & + + o o + + + + + @ # $ $ & - - - r M p.h.XXr.8 4 3 G l.4.*.2.-.$.2.-.-.-.-.2.$.-.-.5.    ",
"$.2.$.2.-.-.-.-.-.-.2.$.-.-.-.-.$.2.2.$.>.s.-Xc.-.i.x f l l r = @ + O o X X X + + + # $ & - - = - w n oXOXe.S S S S L #.$.4.4.$.2.$.-.-.-.-.-.-.-.-.5.    ",
"-.-.2.-.-.-.-.-.$.-.$.2.-.-.2.4.-.-.$.-.-.-.+X!.<.j.n f l d = $ $ + O o o o + + + + @ # & - , 0 0 e M -X-Xs.9.$.;.$.$.$.-.$.$.$.-.2.2.$.-.-.-.-.-.-.3.    ",
"-.-.-.-.-.-.2.-.-.-.-.-.-.$.+.+.$.2.2.2.-.-.>XeX.X} z g l l d = + + X o o + + o + + @ $ & - , G W r n [ t.-X;X4.v.z.$.4.-.-.-.$.-.-.-.-.-.-.2.$.-.-.5.    ",
"-.-.2.$.2.$.-.-.-.-.-.-.2.-.L Z P #.$.-.-.-.:X,X[.p.z g B l l - + + O O o + O o + + + $ % & = t i w d z h.tXrX4.n.v.#.4.$.$.2.-.2.-.-.-.-.-.$.2.-.-.5.    ",
"2.$.$.2.-.2.2.2.-.-.-.-.2.@.A 1 K 2.2.2.-.-.;XtXoXj.c g l l f = O + o o o O X + + + # $ % & = ; - - ; f -XrXE.l.r.<.$.2.$.2.-.-.$.-.-.-.-.-.2.-.-.-.5.    ",
"-.-.-.-.$.4.-.-.-.-.-.+.R F u 4 >./.~.4.$.2.!.rX,Xi.f B l l f = + @ o o o o O O + # # $ & = = ; & * r m -X#X$.j.w.#.2.$.-.*.-.-.$.2.-.-.-.-.-.-.-.-.5.    ",
"-.-.-.-.#.O.O.O.Q $.-.R 5 1 1 9 R.qX*X9.O.9.&.!.=Xt.c z f l f - + + o o o o o O + # # # & = - - = 0 m h. Xs.>.j.w.*.2.2.-.$.4.$.2.-.-.-.$.2.-.-.-.-.5.    ",
"-.-.-.-.7.Y.Y.Y.G.G.5.&.R K F F G.6X].C.-.k.0.] h.[.h.N f h h = + + X O o O O O + # # # % = - = - w m h.s.$.9.n.w.#.-.-.-.-.4.$.-.-.-.-.-.-.-.-.-.-.5.    ",
"-.-.-.-.T.7X8X8X7X].A.A.A.5.-.O.5.P.L.Z.a.}.f. .` l. X| s z g = + @ + o o o X O + + # % * = - - r x N j.r.<.k.w.>.-.-.-.-.#.+.$.-.-.-.-.-.-.-.-.-.-.5.    ",
"-.-.$.+.U.3X6X6X7X`.A.K.L.K.C.3.5.B.A.Z.d.:.f.}.q.$._ c g h f - o + + o o O + + + # + % ; - ; - g M m h.l.<.l.$.*.$.-.-.-.5.7.4.$.-.-.-.-.$.-.-.-.-.5.    ",
"-.-.L A L @.>.x.G.J.D.A.J.J.C.C.C.9.5.J.A.$.g.p.{ <.a d z z h e & # O o o X + # + # $ & - = - = f m | }.r.$.,.>.-.*.-.$.-.~.3X~.2.$.2.-.-.2.-.-.-.-.5.    ",
"-.-.S 2 1 < 2 L $.5.K.K.A.A.K.K.C.@.2.A.J.4.b.{ r X.7.^ B h l l 0 $ @ o O o + # + # = - - - - ; d [ }. Xw.c.n.>.$.*.2.+.-.%XqX%X*.$.*.2.$.-.*.-.2.>.5.    ",
"-.-.R L P ! %.3.C.5.C.C.J.K.K.K.5.-.2.V.7.X.<.C.E r 2./ B h h h q $ + O @ @ # $ $ $ , = - - > 0 w u.<Xh.+X,Xj.>.-.-.2.5.C.^.%XU.L L $.2.-.-.$.$.-.$.5.    ",
"-.-.-.-.5.K.K.K.A.5.$.2.F.K.K.K.5.-.-.$.>.9.c.!.s.m ' i.i.{ l l l 0 X + $ $ % $ $ $ , = - - > W b i.1X=X-XXX,.>.-.-.4.A.A.K.P.=.4 9 +.-.$.$.$.$.$.$.5.    ",
"-.-.-.-.5.Z.S.K.F.C.2.3.C.A.Z.C.5.-.-.$.-.r.k.|.h. .u.i.}.p.l f r 0 # + # # $ % % % * - - - , ^ ( q.eXyX=Xa.*.2.-.$.2.A.K.N.=.Q A F $.5.5.4.4.3.5.5.C.    ",
"-.-.-.-.-.-.4.A.K.S.K.C.5.2.2.2.2.-.-.$.>.q.{ h..X} N [ i.u.l B q & = $ $ $ $ % % - - - = 0 w v / <.<X,X+Xq.$.$.$.-.2.J.K.Q C K +.$.C.A.A.A.A.A.A.A.P.    ",
"-.-.-.-.-.-.2.C.S.J.K.C.$.$.$.$.-.-.-.-.2.7.q.OX,Xh.; n u.[ B l w = = = = - % % - - - - = q n _ | f.}..Xz.4.4.4.2.2.2.A.A.I 2 F 2.5.A.K.K.F.F.F.S.S._.    ",
"-.-.-.-.-.-.-.2.5.4.5.2.-.-.2.-.-.-.-.-.-.2.e.u.oX=X; l u.m ; f l e = = - - = = - = - y : ; ^ $.m.,X.X X!.&X%X&XT.2.$.7.5.+.E *.C.A.S.F.F.K.K.K.K.L._.    ",
"-.-.-.-.-.-.-.-.$.*.$.-.-.2.-.-.-.-.-.-.>.s.<.` u..X$X=X}.c - $ e 0 - r ; = = = = # p p w X.y.!.:X+Xw.R.7XqX9X9X/.2.+.-.-.-.-.5.A.F.S.S.F.K.L.K.K.L._.    ",
"-.-.-.-.-.-.-.$.$.$.$.-.2.-.-.-.2.$.2.$.4.s.w.r.'  .>XuX,X|.h.N 0 ; f l : , ; = . - p b M }.=X1X=Xf.+.8.~.%X6XqX].7.3.-.-.2.C.C.A.F.F.K.3.! ! %.~ ! =.    ",
"-.-.-.-.-.-.-.-.2.2.$.$.#.#.$.-.$.2.-.-.>.$.j.!.6. .8.#X1XeXeXoXt.m d f 0 - , ; f x B m i.}.-X Xk.v.>.-.$.2.&XqX&XK.C.2.-.C.J.J.F.F.L.L.Q 4 6 7 6 4 V     ",
"-.-.-.-.-.-.-.-.*.-.$.4.Z.Z.4.$.$.$.-.-.*.$.v. Xj. . . .i.+X,X X;X X. l z w $ f p.t.| u.}.j.x G 9.-.-.-.+.$./.3X`.K.B.2.-.C.K.K.F.A.A.3.U 2 5 8 V u D     ",
"$.-.-.2.-.-.-.-.2.-.#.I.6X3XI.+.4.-.-.-.$.4.>.g.|.k.,.f.d.1.h.h.1XoX- N { z l N x [ } o.a.,.E q.z.-.X.>.$.2.9.7.H.J.A.-.-.C.K.K.F.C.J C 7 3 D %.#.#.2.    ",
"2.-.-.2.-.-.-.-.-.-.+.U.8X7XG.O.2.$.2.-.2.$.*.>.g..Xn.r.v.z.1.j.M.@X-Xh.[ t.j.u.x [ } ` :.s.v.oXb.-.:.>.-.-.+.+.5.K.A.-.-.C.K.J.K.V.D 2 6 4 S -.4.4.5.    ",
"-.-.2.$.-.-.-.-.-.-.-.7.T.Y.( Z R *.2.$.$.2.$.*.>.z.v.>.<.s.:.j.<.8.>Xf./ <.j.h.h.p.h.f.x.v.g.g.w.-.$.-.-.-.-.-.3.5.2.-.-.2.5.5.V.2.O.R P P O.$.*.$.5.    ",
"-.-.$.2.-.-.-.-.-.-.-.$.$.+.C 2 K *.4.$.2.-.-.>.4.$.4.>.*.0.p.}.s.>.1.t.1.+.] t.j.b.b.j.g.-.-.-.-.-.-.-.-.-.-.-.-.-.-.-.-.$.$.$.>.*.$.4.2.2.-.-.-.-.5.    ",
"-.-.-.-.-.-.-.-.-.-.-.$.$.$.L S ( -.$.-.-.-.*.$.$.4.n.w.$.<.n..Xj.n.}.j.i.i.:.$.-.>.>.>.>.-.-.-.-.-.-.-.-.-.-.-.-.-.$.-.-.-.$.-.$.$.$.2.2.*.-.-.-.-.5.    ",
"$.2.-.2.$.2.-.-.$.4.$.*.4.-.$.*.-.2.$.2.2.-.-.-.-.>.6.>.$.>.,.,.,.,.r..X}. Xg.*.-.g.r.$.*.$.2.*.>.*.-.-.-.$.2.-.-.-.-.-.-.$.-.-.-.-.$.$.$.$.$.4.-.-.5.    ",
"-.-.-.2.2.$.-.-.-.-.$.-.-.$.2.2.>.$.-.-.$.-.-.-.$.*.$.$.*.-.*.*.$.$.>.r.d.l.<.$.>.w.,.2.>.$.$.2.2.$.-.-.-.-.-.-.-.-.-.-.-.2.2.$.-.-.4.$.$.2.$.$.-.-.5.    ",
"-.-.-.$.-.2.-.-.-.-.2.$.-.-.-.-.-.-.*.-.-.-.$.2.2.-.$.-.4.$.*.>.4.$.$.$.$.*.$.2.2.$.$.#.$.$.2.$.$.-.$.-.-.-.2.$.$.2.-.-.-.2.$.$.-.2.$.-.$.*.-.-.-.-.5.    ",
"-.-.-.-.-.$.-.-.-.2.$.2.-.-.-.$.-.-.-.-.2.$.2.-.$.2.2.-.$.2.$.*.$.2.$.4.*.>.*.$.-.-.-.2.2.2.$.*.2.-.2.-.-.2.$.2.-.-.-.-.2.$.4.$.2.$.2.-.2.>.*.-.-.-.5.    ",
"2.-.-.-.-.-.-.-.$.2.-.-.$.$.$.2.-.-.2.-.-.-.-.-.2.$.-.-.$.-.-.*.2.-.-.$.2.$.2.$.$.$.Y.%X~.4.#.>.-.-.-.2.-.-.$.2.-.2.$.2.2.$.-.2.-.-.2.$.$.$.2.-.-.-.5.    ",
"$.-.-.-.-.-.*.-.-.$.-.-.2.$.4.$.-.-.$.-.-.-.-.-.-.-.-.-.$.2.*.>.$.-.-.2.-.2.$.2.$.2./.qX3X7.+.-.2.-.-.$.-.-.-.-.-.-.2.$.-.-.-.-.-.2.$.2.2.-.-.-.-.-.5.    ",
"2.$.-.-.-.-.-.-.4.$.2.$.-.-.$.2.-.-.-.-.-.-.$.-.-.2.-.-.$.-.$.2.-.-.-.-.-.$.$.4.$.$.T.&X~.+.P $.2.-.>.*.-.-.-.-.2.-.-.-.-.-.-.-.-.-.-.-.-.-.-.-.$.-.5.    ",
"-.2.-.-.-.-.-.-.$.-.-.2.$.2.*.>.-.-.-.-.-.-.2.-.2.$.-.-.2.-.2.$.-.-.-.-.-.2.$.$.$.$.2.7.O.7 7 O.4.-.$.*.-.-.-.-.$.-.-.-.-.-.-.$.-.-.-.2.$.-.-.-.2.-.5.    ",
"2.2.*.-.2.-.2.2.2.2.2.$.*.*.>.*.*.*.*.*.$.*.*.2.$.4.$.*.$.*.*.*.$.2.*.2.-.2.*.4.2.2.#.$.Y u Z O.2.*.$.2.$.4.$.$.*.4.$.*.$.2.2.2.*.*.-.2.*.>.*.$.$.4.5.    ",
"$.-.-.-.-.2.$.-.$.-.$.2.$.4.*.-.>.*.>.>.2.*.>.-.$.$.4.2.2.>.*.>.$.4.-.-.-.-.*.>.$.*.$.4.$.O.O.#.$.2.2.$.$.4.$.4.-.$.*.>.$.4.-.-.>.*.-.$.$.4.$.4.*.$.5.    ",
"5.5.5.5.5.5.5.5.5.5.5.5.5.5.5.5.5.5.5.5.5.5.5.5.5.5.5.5.5.5.5.5.5.5.5.5.5.5.5.5.5.5.5.5.7.7.C.5.5.5.5.5.5.5.5.5.5.5.5.5.5.5.5.5.5.5.5.5.5.5.5.5.5.5.Z.    ",
"                                                                                                                                                          ",
"                                                                                                                                                          "
};
