/* XPM */
static char *_28c87541e9a47e2fc71e623e9ab89feb9rHlxm496sacbGK[] = {
/* columns rows colors chars-per-pixel */
"77 77 256 2 ",
"   c None",
".  c #016C01",
"X  c #016502",
"o  c #017402",
"O  c #0A770A",
"+  c #157817",
"@  c #11750F",
"#  c #1E7D22",
"$  c #116A13",
"%  c #250D56",
"&  c #260D5A",
"*  c #280E5F",
"=  c #2A0E64",
"-  c #2C0F69",
";  c #28046A",
":  c #2E106C",
">  c #2D1266",
",  c #2E0974",
"<  c #320E79",
"1  c #311273",
"2  c #34127C",
"3  c #30126F",
"4  c #261766",
"5  c #497273",
"6  c #295E6B",
"7  c #168913",
"8  c #37B013",
"9  c #198322",
"0  c #268729",
"q  c #328D36",
"w  c #2D9633",
"e  c #399B3D",
"r  c #349638",
"t  c #2F912E",
"y  c #38A939",
"u  c #37AD31",
"i  c #249400",
"p  c #48B234",
"a  c #42B034",
"s  c #42AD12",
"d  c #3D9D41",
"f  c #3E9347",
"g  c #33844F",
"h  c #3DA743",
"j  c #38A94D",
"k  c #32A96B",
"l  c #4C9B51",
"z  c #42A445",
"x  c #44AE44",
"c  c #45A649",
"v  c #46AA4A",
"b  c #4AAD4E",
"n  c #49AB48",
"m  c #45B44C",
"M  c #4BB14D",
"N  c #48B448",
"B  c #4CAF50",
"V  c #4BA758",
"C  c #52AE5C",
"Z  c #50AE55",
"A  c #4DB151",
"S  c #4DBA53",
"D  c #4FBA59",
"F  c #51B455",
"G  c #52BC56",
"H  c #55BC5A",
"J  c #56B75B",
"K  c #50B444",
"L  c #4C8D6C",
"P  c #54AC62",
"I  c #5CAC6C",
"U  c #56AA69",
"Y  c #5AB565",
"T  c #5AA876",
"R  c #51AF6E",
"E  c #67AC7A",
"W  c #68B572",
"Q  c #63B45D",
"!  c #4DC455",
"~  c #53C45A",
"^  c #55CC5D",
"/  c #56C85C",
"(  c #57D05F",
")  c #58D15E",
"_  c #51D253",
"`  c #4BC24E",
"'  c #5DC363",
"]  c #5ACC63",
"[  c #59D261",
"{  c #59D362",
"}  c #5DC075",
"|  c #64CB6A",
" . c #62C868",
".. c #65D96C",
"X. c #6DD573",
"o. c #69DD71",
"O. c #73DB7A",
"+. c #70C476",
"@. c #5FE168",
"#. c #6DE375",
"$. c #75E57C",
"%. c #63C23C",
"&. c #87C577",
"*. c #361382",
"=. c #391485",
"-. c #3B148C",
";. c #3E1592",
":. c #3F1995",
">. c #35068C",
",. c #3902AD",
"<. c #401696",
"1. c #42179B",
"2. c #472596",
"3. c #4619A3",
"4. c #4919AB",
"5. c #4618A4",
"6. c #4D1AB7",
"7. c #521DBC",
"8. c #4F00B2",
"9. c #4D23AA",
"0. c #542AB4",
"q. c #537793",
"w. c #5B6EB1",
"e. c #5E58A5",
"r. c #541DC5",
"t. c #561DC9",
"y. c #561AC9",
"u. c #5B1BDA",
"i. c #550EC9",
"p. c #5825C9",
"a. c #5E26D8",
"s. c #5E32CE",
"d. c #6537CB",
"f. c #632BDB",
"g. c #6939D7",
"h. c #703EDC",
"j. c #5914E7",
"k. c #6218E7",
"l. c #6B11F8",
"z. c #6523E9",
"x. c #6C36E4",
"c. c #6D23FE",
"v. c #6B2AF6",
"b. c #732AFD",
"n. c #763AFD",
"m. c #7838FB",
"M. c #6F3DF0",
"N. c #5F31F4",
"B. c #6B4DD5",
"V. c #7074CD",
"C. c #7644E9",
"Z. c #7D45FD",
"A. c #7E4AFC",
"S. c #7C48F3",
"D. c #7553F1",
"F. c #7572F0",
"G. c #505DCC",
"H. c #824CFE",
"J. c #8246FD",
"K. c #8554FE",
"L. c #885AFD",
"P. c #9755FF",
"I. c #8C62FE",
"U. c #8964F0",
"Y. c #936AFF",
"T. c #9C7BFE",
"R. c #9772FE",
"E. c #8876F2",
"W. c #A27EFF",
"Q. c #8672C4",
"!. c #589A9A",
"~. c #548E8F",
"^. c #5AA485",
"/. c #5BB08D",
"(. c #6AAB86",
"). c #75AB8C",
"_. c #66A995",
"`. c #79AA98",
"'. c #73B990",
"]. c #689AB5",
"[. c #6D98AC",
"{. c #70ABAD",
"}. c #609D9A",
"|. c #73CD88",
" X c #7AE582",
".X c #7CEA84",
"XX c #75E080",
"oX c #7EF086",
"OX c #6DCC94",
"+X c #6A96C8",
"@X c #7795D5",
"#X c #7193CA",
"$X c #7AACCE",
"%X c #798BED",
"&X c #5A90C1",
"*X c #84B88E",
"=X c #898FB9",
"-X c #84AAA6",
";X c #8BA9B5",
":X c #93A8BB",
">X c #8FB6AC",
",X c #89C892",
"<X c #82EC8A",
"1X c #85F48C",
"2X c #88F68F",
"3X c #8DFC95",
"4X c #8AF893",
"5X c #92FE9A",
"6X c #94C8A9",
"7X c #ADCDB5",
"8X c #91E7A7",
"9X c #AFE1B7",
"0X c #8E96D1",
"qX c #98A7C7",
"wX c #94ACCC",
"eX c #A5A8D9",
"rX c #ACB3D0",
"tX c #9798EC",
"yX c #878CF8",
"uX c #8391F8",
"iX c #9996FA",
"pX c #8F8DED",
"aX c #A587FD",
"sX c #AC95FD",
"dX c #A899FA",
"fX c #B39BFD",
"gX c #B599FB",
"hX c #A195EA",
"jX c #AAA3E6",
"kX c #B3A8EB",
"lX c #B8B9E6",
"zX c #AAA5F7",
"xX c #BAA3FE",
"cX c #B8A6F9",
"vX c #B5B5F3",
"bX c #A29FDF",
"nX c #C1A9FB",
"mX c #C8B5FD",
"MX c #CDBCF5",
"NX c #9BC5C8",
"BX c #B3CBCF",
"VX c #BBC7E4",
"CX c #C8D8D4",
"ZX c #C7DBCD",
"AX c #D0E4D6",
"SX c #D7DCE7",
"DX c #CDC6F8",
"FX c #D6C7FD",
"GX c #DBD4FB",
"HX c #CDD7E2",
"JX c #E5D9FD",
"KX c #F2DEFF",
"LX c #E9E4FA",
"PX c #EFEBF6",
"IX c #D9E5E1",
"UX c #C1D7B7",
/* pixels */
"b B ~ [ #.3X1X' v B B B B B B B B B B B B B A B B B b A B B B B B B B B B B B B B B b B B B B A B b A B B A b b A B B B B b b H { { ^ ( $.5X XA c B G     ",
"b B ~ ^ #.4XoX] v B B B B B B B B B A B B B b B B B A B B B B B B B B M B B B B B B A B B B b A B B B B B B B A B B A b B B b G / [ ^ ^ $.3X XG b B G     ",
"~ ~ x r B X.| F B B B B B B b b b B B B B A B B B A b B B b B B b B B B B B B B B B B B b B B b B B B B b A B B B B B B B B B A G H ^ [ o.#.#.$.O.H S     ",
"{ { e X 0 v B b B B B B B B b v b B B B B b B B B b B A B B B B A B B B B B B B B B B B A B B A B B A b B B B A b A B B B A b A b A ( { { ^ #.3X4X' M     ",
"m m e 0 r b B B B B B B b F ' | H A b B B B B B B B B B B B B B b A A B b B B B B B B b B B A B B b A B b A B b b B A b B A B B B b m m ` h ^ oX.X/ M     ",
"o o d A B B A B B B B B c H oX5XO.b b B b B B B b B B B B B B B B B b B A B b A B B B B B A b B B A b A B B B B A B B A B b A b A v 9 o O o w ( [ F G     ",
"7 + d A A B B B B B B b h A  X4XX.M b B B B B B A B B B B B B B A B B B B B A b B B B B B B B B B B b B B b A B B B b B B B B b A v 0 + O o w ^ / A G     ",
"h c b B B B B B B B B z 0 q F ' J b b B B A B B B B b b b b b b b B A b B B B B b b b M Z Z b b B B A B B B B B B B A B B B B B A b v h 0 . w ( [ G G     ",
"F F A B B B B B b B A d @ O d b b b B B B B B B A M A A M b A A M M A A B B A A B B Z B n n b Z B A B B B B B B B b B B B B B B A B A F q o w ( / S G     ",
"b B B B B B B B B B B c e e c B B B B B B B B B B A D ~ G D ..O.|.U b B B B v F X.XX .Z I I Z Z B B B B B B B B B A B b B B B B b B A B z r e h h b G     ",
"b B B A B B B B B B B B A F B B B B B B b B A B b S ~ { ^ ^ #.3XNX[.a z A Z h D oX5X| (.kXrXI p Z B B B B B b c b M M B B b B b B B B B b F d . @ h ~     ",
"B B B B b A B B B B B B B B B B B B B B A B b M B S ^ { ^ { o..XOX|.'.qXI m ~ |.$XwXwXeXxXnXeXqX`.a B x K n W UX*Xy F B A A B A B B B b B A z 0 q c H     ",
"B B n c b M B B B B B B B B B B B B B B B B A B b F / { { ) { _ 6X8X8XNXV '.NX$XuXuX0XlXDX;X;XkXkX{.B -X).x W 7XW h Z B B B B B b A B A B B b b v B G     ",
"b b F H F Z B B B B B B B B B A B B b A F B b B B B ~ ^ R /.( |.wXNXoX XT bXsX%X$X$Xk &.UXK 8 {.jXqX).:X`.n M y M Z M B b A B B B B B B B B B A B B G     ",
"b M X.<XX.b b B B B B B B b b b b B B b b b A B M n e i !.].P wX6X{.VXLXE.F.F.B.(.' U Z Z H ] XX<X,XeX(.B F b F F Z B B B B b A B B B B B b B B B B G     ",
"c A  X5X.Xb b A B A B B B B B B B B b b b b b b F c @ q.q.5 qXOX9XGXDXuXA.C.N.v.F.V.F.C.w.J ..1X4XO.E V M b Z Z b M A b B B B B B B B B B B B B B B G     ",
"b B | $.$.O...J b b B b v F | O. .S / X.X.H B Z b V ].!.L qXDXZXVXzXiXD.M.n.v.f.v.b.b.m.J.#X' {.{. .n B x ).;XI M A B B B b A B A B B B B b B B B B G     ",
"B B ~ ^ #.3X2X' c b A b h F <X5X$._ o.4X3X| c B N P [.}.:XFXLXGXyXj.l.J.m.x.d.4.3.7.i.s.M.C.q.!.}.Z V B a ).;XY n B A b B B B B b B B B B A B B B B G     ",
"B B ~ ^ ..<X.X] A A B J Y |  X1X#.^ ...X.X' v R U M T eXJXPXZX%Xv.Z.K.H.S.0.>.*.> 3 1 1.u.p.>.5 E H F A A b n M A B B B A b B A B B b B B B M B B B G     ",
"b B ~ [ { ..[ [ ^ G v ' 1X1X#.) [ [ / H F Z p ].+XR +XDXKXCXf B.A.A.J.S.9.< 1 1 *.7.t.u.m.U.e.d.bXO.[ ~ J C A A A B B B B A B b B B A B B B B B B B G     ",
"b B D / ^ _ ^ ^ / G v  .4X2X..` ^ ( ~ v c B p ].%X#X/.BXFXvX@XhXY.Z.S.9.-.2 & -.k.b.i.h.L.Y.hXgXNXXX_ ` 7X7Xy A B B B B B B F A B b A B B A B B B B G     ",
"B b h w h { ^ h w z B H o.#.{ ( m q r b Z B p ].%X{.9XSXBX{.dXaXK.H.C., 6.<.2 6.r.f.k.m.K.K.Y.W.wX} ].k 9XPX6Xa b Z B B b b b b B B B B B b B B B B G     ",
"A B 0 X w { ~ 0 X q B D ^ _ ^ ( h X + c B B p }.!.K IXKXNX{.aXH.n.S.d.=.4.;.;.6.5.5.a.b.m.m.Z.m.V.;XtXT +.HXJX7XY b B B A B v b b B B B B B A B B B G     ",
"B B d t h ~ D e t z A M j m ^ { S y b X.X.J U P n W SXmXiXE.A.J.K.d.>.-.1 -.<.4.r.4.5.a.c.b.L.K.T.vXzX`.u ,XPXHXW x B b B  .X. .H G A B b B b A B b G     ",
"B B B B B B B B B B F z # # A { ^ ! o.4X2X .#X[.a Q lXdXF.J.J.J.H.d.>.1 : =.4.r.r.r.5.r.c.c.L.L.T.cXuXuX^.6XCX'.A F A z b  X5X.X{ ^ A B M A b B B B G     ",
"B B B B B b B B B b c d 0 w S { ] ^ .. X<X' #X#Xp z e.@XF.m.H.H.s.d.h.- - -.1.5.5.5.-.r.c.b.A.L.T.gXdXyX!./.zXCXW x C H ' $.1X$.^ ~ A A b B A B B B G     ",
"B B B B B B B M B r + q ! / ^ ( ] { ! f q c @X].Q :Xw.E.sXT.H.H.h.d.0.- 1 -.<.;.<.-.5.t.z.c.b.n.T.xXxXfX'.OXFXLX,Xu Y <X1X#.{ [ B b B B B B B B B B G     ",
"B B B B B B B A B r . w ( [ ( ^ ^ { S # X u @X].l 0XuXgXfXT.S.h.h.0.% 1 -.-.<.<.<.<.4.6.t.z.v.c.L.sXfXnX[.*XPXPX,Xu ' 1X4Xo.! ! A B B B B B B B B B G     ",
"B B B B B B B B B c e c S G F D D D A z d U @X].l e.pXgXT.m.S.9.1.2.2 ;.=.*.-.;.<.<.<.6.t.t.v.c.n.Y.fXxXV.Q.PXAX|.m ] #.#.S r H  X$.] ! S B B B b B G     ",
"B B B B B B B B B B B B B B B B b M B M U @XfX-XE kXgXgXW.m.S.3.g.d.; ;.-.-.-.=.:.<.6.r.r.t.k.c.n.R.fXxXsXMXIX,X) { ] { ^ w X Y 3X4X..^ G B b B B B G     ",
"B B B B B B B A B B B B B b b B B b B M R @XxX;X# Q.gXnXT.Z.S.9.9.9.< -.=.=.-.:.:.<.1.6.t.t.t.z.b.Z.R.fXsXFXAXY ` [ / m x y w H .X$.] G S B b B B B G     ",
"B B B B B B B b B B B b B B B B B B B n U %XiX{.L 0XaXgXT.J.H.9., < 1 : 1 , *.-.-.-.-.5.t.t.r.z.c.c.L.sXsXFXZXo h { ] # # D [ [ [ / S B B B B B B B G     ",
"B B B B B A B B B B B b B B B B B B B K R @X%X!.E mXxXxXaXn.h.4.< 1 > & = - - 2 =.*.=.6.t.y.r.z.c.N.E.sXnXJXSX*Xl S S + . x ^ ~ ^ ! A b b B B B B B G     ",
"B A b B B b B A B B A A B B b B B B B b U uXiX[.E kXfXsXT.x.:.;.*.- = & = - - - 2 =.-.5.r.r.r.z.l.Z.F.dXMXLXJXCXl 7 q @ o 9 0 d F F A B B B B B b B G     ",
"B B B B B B A b b A b B B B B B B B F x E VXmX`.E kXY.A.K.h.<.;.*.= & & & = - - - 2 ;.:.5.r.y.r.k.n.Y.sXfXFXCXf . @ o O + @ @ q b b B B B B B B B B G     ",
"A b B A b B B b B B A B B B B B B B Z M I eXFX>XE cXP.m.H.h.-.;.*.= % % % = - - - 2 =.-.:.5.r.7.u.b.I.fXsXFXCX7 . o L :XV w f h B B B B B B B B B B G     ",
"B B A B A B B A B B b A B B B B B B B n T kXFX>XT tXL.Z.H.S.g.1.1 > % % % & = - - 2 *.=.1.4.r.p.a.b.Y.aXfXlX).9 @ o L -XI M F B B B B A B B B B B B G     ",
"A b A b b B B B B B B B B B B B B B A b C :XMX>XR pXL.Z.A.A.x.9.< = % & & % & - - 1 *.=.5.t.t.y.j.b.I.cXmX:X7 q 0 t t y B Z B B B A B b B A b B B B G     ",
"A b B B B B b B B B B B B B F Z B B B B B n lX7X(.zXP.Z.K.C.4.<.*.= % % % & = - - - < =.5.r.y.0.s.b.I.DXMXbXC B P C B B B b b B B b b A B B B B B B G     ",
"B B B B B B A B B A b B B b c c b F B A F N BXLXkX%XA.Z.J.H.C.4.1 > % % % : : % - - 2 =.1.p.i.5 q.m.I.R.aXMXZXJ qX;Xx B B B B B B B A B b A A b B B G     ",
"B B B B B b B B B B B B F b r 0 e n b B B B ZXGXfXaXK.Z.A.H.S.9., : % & % & & & - - 1 -.1.3.i.B.B.b.m.H.fXPXIXS eX:Xy F A b b A b A B A b A B B B B G     ",
"B B B A A A A A B B B B F c 0 X q B B B Z B ZXKXmXgXL.A.A.H.S.9., > % % % % & & - : 2 -.1.4.7.k.k.p.l.Z.MXIX6X-X;XE n Z b F A b B B B B B b B B B B G     ",
"b B B b b F B B B B B c e t + @ F XXX.F v B 6XPXGXiXA.J.A.H.S.9., > % % % & % & - 2 *.=.5.t.y.p.4.9.M.Y.MXZXV jX`.8 C B B b b A B B B B A B B B B B G     ",
"A B B B n z z z z n Z d $ . X +  .5X<XJ v U u 7XFXyXK.H.A.H.S.9., > % % % % % & - 2 *.=.1.r.t.r.r.a.L.sXcX;XI jX`.a F B B b F B B A b B B B b A b B ~     ",
"B B b b J  .| |  .' D m r r q t ' 1X X! I wXT !.iXcXdXY.n.H.S.9., > % % % % & & - *.=.=.5.r.y.r.u.v.I.cX;Xx E jX`.u Z B B B B A B B B B B B b B B B G     ",
"B B B b | 4X4X4X2X$.! ^ ^ ! b z ~ [ [ R 0XxXbXpX@X`.vXR.n.H.S.9.3 1 > & % & % & - *.*.<.7.r.r.u.n.K.I.gX`.E qX`.C B B B B n c b B B B B B B A B B B G     ",
"B Z c n  .<X1X1X1X#.^ { { [ D A H ~ _ |.{.=XbXdX].s Q.K.A.H.S.7., > = & % % & : - 2 2 1.t.t.r.k.A.I.I.gX-XE -XZ M B B B A F J F b B B B B b B B B B G     ",
"B b e 0 r V F Q  .[ ( ^ { ^ ^ ~ ~ D G ( ^ 8 qXsX+X(.6 B.K.H.S.x.4.1 & & % % - 2 - 2 -.4.t.r.p.j.Z.I.R.cX-Xx I C B B B n A X.1XX.A b A B B A B B B B G     ",
"A B t . X X X r c G { ( ^ ^ [ [ ~ b A ^ [ T wX=Xe.&XR #XJ.J.J.H.z.1.> & & & : 2 3 3 4.t.t.t.t.z.n.R.cXcX`.>XeXI n B A v M .X5X XZ b B A B B B b B B G     ",
"B b z r e h x S ~ H G ~ [ ( { ^ D B A S W #X'.p L e.P V.J.A.A.H.f.5.> & : 2 2 *.<.<.7.t.r.y.z.b.b.aXGXiXlXSXjXU B B A D ~ X.$. .r e b B B B B B B B G     ",
"B B b V G [ [ ) { G c D ( { { ( H B B b D /.>XNXwXV.+XpXaXT.A.A.S.0.% - -.<.;.;.<.<.7.t.r.p.l.e.w.aXJXDXFXlX(.Z B V A / ( { { m o + z b B b b b b b G     ",
"B B B b G / / ^ ^ ~ A G ~ / ~ ~ S B B b P {.tXcXsX%X%XiXcXsXA.Z.S.f.-.: 2 *.-.<.<.1.7.t.r.t.k.V.}.;XLXPXFX0Xa B B B F ^ { ! ` h 0 q M G F S F S G G ~     ",
"B B b A A B F ^ { ( { ~ A A S A A B B b U $X%XzXcXyX#XF.uXaXA.Z.f.i.7.-.-.-.-.<.1.7.t.r.y.a.b.P.Q.(.SXJXlX-XB B b B A ( ^ h 9 r c b ~ ^ ^ / ^ ^ / / {     ",
"A b b B Z n F ~ ^ ^ ( / A b B B B B B B A R +XvXGXdX2.V.uXF.D.A.g.r.r.p.r.t.4.3.y.t.y.p.u.z.U.E.E.tXxXnX;XA F F F B A ( ^ r X q A H ^ [ [ ( ( ( ) [ @.    ",
"B B B B b b b G G S F A B B B B B B B B B B $XyXvXFX2 G.uXV.9.C.J.g.r.r.t.t.r.r.t.t.y.f.c.l.q.c >XSXcXkX6X.X.X.X| B b G D v d b ~ ~ ^ ) ( [ { ( [ ( @.    ",
"B B B B b F B b B B b B B B B B B B B n R :X_.&XiXzXHXDXzXF.y.8.d.a.t.x.p.r.t.7.<.;.5 e.m.aX0X7XBXDX`.>X8X5X5X3XO.Z c B b B B G { ^ [ ^ ( [ ( { [ [ @.    ",
"B B b B B B B b b B B b B B B B B B B n I ;X`.).+X%X9XIXGXzXsXQ.s.k.M.J.s.7.p.7.>.7.w.w.F.fXFXJXFXhXV G X.$.2X3X$.~ S B B S H ~ ) ) { ^ S h h m h h m     ",
"B B A B B A b A B B b b v b b B B B B B A x rXrX_.%XOXBXJXKXLXmXaXU.M.S.f.t.7.7.B.A.A.F.iXnXMXlXeX:XC F B F .X5X X[ ~ S B H ( ( ^ ( { [ h O + @ + @ 7     ",
"B b B B B B B B B B b F Y / B b b B B B B B qXcXzX%X%XuXtXMXJXxXFXrX,.S.K.x.8.e.dXyXF.iXxXkXe.g F B P B c b O.<X#.[ ~ A M ~ ( ( { ( / D w . @ 9 9 0 0     ",
"B A B A b B B B B B b ' 1X<X .c F B B B B Z C qXxXzX^.0X;X^.iXsXJXMXj.F.%XD.D.F.A.%X%X%XpXU i -X-XP #X^.n B H H / [ / A B ~ { ( { ! w 9 + o 0 h v x A     ",
"B b B A B B B B B B n  .4X2X .z B b B B B B M P qXmXqX*X>X;X!.jX:XBXFXdXY.aXsXiXD.%X%X&X^.:XqXmXqXC _.T n A b c D ^ / B B ~ ] ^ [ ! 0 X @ o t B F B H     ",
"B A A b b B B B B B b J X. .z 9 z B B B B A A n C ;XqXC (.;X_.jX).%.BXdXV.-XeXdXdXdXiX0X-XqXqXqX`.B p n B B B b A G D B B S D G H A z d d d h b B B G     ",
"B A B B B B B B B B b b B c # . r b A B B B B B A n U U p ^.iXxX>XP }.%X^.y !.@XeXeXeXjXqXM x b V B B B B b A A M B B B B B b b B B B A B B B B B B G     ",
"B b B B B B B B B B Z b b c r t d B B B B B A A n I rX`.u (.kXkXkXjXkXcXpXuX].v C I C P C A B B A B B B B B B B B b b B B b b b B B B A B B b B B B G     ",
"B B B B B B B B A B B b F B M B B B B B B B B A b Z E I b C E E (.E `.nXxXxXqXu F qX`.u b A B B B A B B B B A B B A b B b F B B B B B b b B b Z B B G     ",
"b B B B B M B B b B B A B b b F B B B B B A B b B A N b B b n N b a C `.-X-X(.b Z -X(.M Z A B B B B B B B B A b A b B A b b B A b A B B B B B M B B G     ",
"A B B A B B B B B B b B B B B b B B B B B b B A B A B B B B B B Z Z B N x x M B b x n n n b A b B B B B A b B B B B A b B B B b B A B A B B B B B B G     ",
"B B B b B B B B B B A B A B b B B B B B B B B b B B B B B B B B B B b Z A A A M A B B A Z A b b B B B B B B B B B B B B B B B B A b B b B A b B B B G     ",
"B B A b B B B B B b A B B B B B B B B B A b B B B B B B B B A B B b A b B B B A b b | $.X.F n Z B B B A B B B b b A B B B b b B B B B B B A B B B B G     ",
"B B B B B B A b B B B B b B B B b B B B A B B B B B A B B B B B B B B A B B B A b A $.5X<XH c B A B B b B B B A B B B B B b F B B B B B B b B B B B G     ",
"B b B B A b B B B B B A A B B B B B B B b B B B B B B B B B B B B B B B B b A B b B | .XX.c e b A B A B B A B B B B b B A b B B B B B B B B B B M B G     ",
"B A A B b A B B B A b B b A B B B B B B A B b A B B B B B B B B A b B B B A B b b b F J z + + z F B b B B b B B B B A B B A B B B B M B B B A b b Z G     ",
"A B A M A B A B A A A b M B A B A A A A A B M A M B A A B A A b M B B A A B B A F b b b e 9 0 z A M B A B A A B A A B A b A b B A A b A A M B B B B G     ",
"b A B B M Z B B b B b A b F B B b b B B B B B B B B B B B B B A B A B B A b M Z b b b F b z z n b B B B A B b B B B b B B F F b b A b B b F B B B B G     ",
"G G G G G G G G G G G G G G G G G G G G G G G G G G G G G G G G G G G G G G G G G G G G G ~ H G G G G G G G G G G G G G G G G G G G G G G G G G G G /     ",
"                                                                                                                                                          ",
"                                                                                                                                                          "
};
