/* XPM */
static char *_e40e1c0ffd149f08f523901be3fdbe7cxRbIGvea9BGGf6S[] = {
/* columns rows colors chars-per-pixel */
"63 63 126 2 ",
"   c #003A00",
".  c #004500",
"X  c #005300",
"o  c #005B00",
"O  c #006200",
"+  c #006C00",
"@  c #007301",
"#  c #047709",
"$  c #05790B",
"%  c #0C7B12",
"&  c #127C16",
"*  c #167D1A",
"=  c #1A7E1D",
"-  c #1C821F",
";  c #1E8322",
":  c #228525",
">  c #228926",
",  c #268629",
"<  c #28872B",
"1  c #268B2B",
"2  c #2A8B2D",
"3  c #2E8E31",
"4  c #308F33",
"5  c #2E9332",
"6  c #329235",
"7  c #319836",
"8  c #369639",
"9  c #38963B",
"0  c #349C3A",
"q  c #3B9B3E",
"w  c #36A03D",
"e  c #39A13F",
"r  c #3D9D41",
"t  c #3DA342",
"y  c #3FAA45",
"u  c #409F43",
"i  c #42A446",
"p  c #41AC47",
"a  c #45A748",
"s  c #48A44C",
"d  c #46AA4A",
"f  c #4AAD4E",
"g  c #45B24B",
"h  c #48B34E",
"j  c #48B94F",
"k  c #4CAF50",
"l  c #4DB152",
"z  c #4CBB53",
"x  c #51B556",
"c  c #51BB56",
"v  c #54B759",
"b  c #58B65D",
"n  c #55BC5A",
"m  c #59BE5E",
"M  c #5BBE60",
"N  c #4EC155",
"B  c #4FCA58",
"V  c #50C157",
"C  c #53C55A",
"Z  c #59C45F",
"A  c #55CD5D",
"S  c #58CC5F",
"D  c #56D05E",
"F  c #58D05F",
"G  c #5DC262",
"H  c #5ACE61",
"J  c #57D060",
"K  c #59D361",
"L  c #5DD965",
"P  c #5FDD68",
"I  c #61C666",
"U  c #65CD6B",
"Y  c #67CF6D",
"T  c #69CD6F",
"R  c #61D569",
"E  c #64D56B",
"W  c #67D06D",
"Q  c #69D16F",
"!  c #64DB6C",
"~  c #6BD772",
"^  c #6CD472",
"/  c #6BDF73",
"(  c #6DDA74",
")  c #6FDA75",
"_  c #71DA76",
"`  c #72DB78",
"'  c #71DD78",
"]  c #74DC7A",
"[  c #74DE7B",
"{  c #6BE173",
"}  c #6DE074",
"|  c #6FE377",
" . c #71E279",
".. c #71E478",
"X. c #72E67A",
"o. c #75E27C",
"O. c #76E87E",
"+. c #78EA7F",
"@. c #7AE681",
"#. c #7AE781",
"$. c #7AEB82",
"%. c #7CEF83",
"&. c #7DEC84",
"*. c #7FED86",
"=. c #7FF187",
"-. c #7FF386",
";. c #81EE88",
":. c #81EF88",
">. c #81F088",
",. c #83F28B",
"<. c #82F589",
"1. c #82F58A",
"2. c #85F38C",
"3. c #85F68D",
"4. c #86F98E",
"5. c #86FA8E",
"6. c #88F88F",
"7. c #89F890",
"8. c #8BFF93",
"9. c #8CFD94",
"0. c #8CFE94",
"q. c #8EFF96",
"w. c #91FF99",
"e. c #93FF9C",
"r. c #94FF9C",
"t. c #98FFA1",
/* pixels */
"f l A R 8.3.l k k k k k k k k k k k k k k k k k k k k k k k k k k k k f l k k k k k k k k k f k k k k k k S S S K 4.8.x d l k ",
"l l C H 4.>.k k k k k k k k k k k k k k k k k k k k k k k k k k k k k k k k k k k k k k k k l k k k k k k C A S A 1.4.m x l k ",
"K A * = l x k k k k k k f f k k k k k k k k k k k k k k k k k k l k l f k k k k k k k k k k k k k k k k f l l A K K K 4.6.v f ",
"A N ; ; f k k k k k k k n x k k k k k k k k k k k k k k k k k k f l f l k k k k k k k k k k k k k k k k l l f C A N A 1.3.x f ",
"# * f k k k k k k l f G 9.:.f k k k k k k k k k k k k k k k k k f h l f k k k k k k k k k k k k k k k k f l f : # % - A K f k ",
"= : f k k k k k f f i n 6.O.f k k k k k k k k k k k k k k k k k f x l l k k k k k k k k k k k k k k k k l f f 2 * $ $ N S x k ",
"k f k k k k k f l d @ : l k k k k k k k k k f k k f f f k k k k f f f f k k k k k l k k k k k k k k k k k k f h f * @ A F x f ",
"k l k k k k k k l s = 3 k f k k k k k k k l l z l v M v k k k k f v m v f k k k k f k k k k k k k k k k k k k k l < ; N C f k ",
"k k k k k k k k k k k k k k k k k k k k f v K J A / w.' t f f k t ' w.^ d l k k k k k l k k k k k k k k k k k k k k f * # f k ",
"k k k l k k k k k k k k k k k k k k k h f z A K A / 7.' m n f n M ' 7.W d l h f l k k f k k k k k k k k k k k k k k f 2 : f k ",
"k f d f f k k k k k k k f f k h k k k l f c K K F A B ..r.] q ` w...A V f k f f d f f l k k k k k k k k k k k k l f f f l f k ",
"f k G M x l k k k k k k x l k l l k k k l l V V N A A / 6.( p ^ 4.{ A V f l l m G x f k k k l f k k k k k k k k f l f l k k k ",
"f v 9.7.f d k k k k k k d f f f d f f f l r + @ + e K A A D D D D A D c f C A -.r.T d l k k k k k k k k k k k k l f k k f l k ",
"f x >.:.I Z k k k k k x I m l v I m f f l i , : @ e K A D F A A z A K V l C B  .2.I d l k k k k k k k k k k k k f l k k k k k ",
"h l A K 9.6.k k k k i m w.3.B / w.*.d l l f l r o e L A S A K p o p K A A F K z u f f k k k k k k k k k k k k k l k k k k k k ",
"f l A K >.$.z l f x G Y >.+.A K :.` f k k l z d 2 y N C D A K p O g K A D C z G I n z l k k k k k k k k k k k k f l k k k k k ",
"k l K K A A K H d G 9.4.A A K A d f k k f c K A L g . t L D K y O g K S L t   ` r.} D n f f l k l f l f k f k k k k k k k k k ",
"k l z z A H z z k n >...A A z z l k k k f x A C S z 5 y z N L y O p K N z y 1 W 1.E C z f l f l k l f h x l l f k k k k k k k ",
"k d + % J C + & f l D D K z o = d f k k k k f v K D L g . e P p O p L y X j L A D z f f f k k k k k f f i f f h k k k k k k k ",
"k k 3 5 C V 3 6 f l z N K N 5 a U G f k k h f l z N K j 5 y N w + w N 7 + g K N z l k k l k l k l l f I Y n n g k k k k k k k ",
"k k l k k k k k z d o : K D D { r.:.s l k k x q X w K H P g O @ + + + @ + g P 0 X r x f f f k k f f i >.w.R D v f k k k k k k ",
"k k k k k k k f i r 0 y S A A K ] T f k k k k i < i A z j w @ : 4 4 4 4 < g A i 2 a l l z x z l f I Y O.*.H C l f k k k k k k ",
"k k k k k k k s + ; K K K S K z X = l k k k k k x f x 8 O + + 8 x l l l l k f f k h f A L F K x i >.r.! A g i f f k k k k k k ",
"k k k k k k k k 3 q C C C C C x 4 r k k k k k k l f l i 3 6 3 t l k k k k k h x z v v j g C D V v ' *.V g U Q n v l k k k k k ",
"k k k k k k k k x l f f f k f k l l k l k k k k f l k l l l l l k k k k k l f C K A L 5 . z L D F D D ; X >.r.! F z f k k k k ",
"k k k k k k k k f f f k k k k k k k k f k k k k l f f l l k k k k k k k l f f v C A D g w g g C D z g y 0  .@.H V l k k k k k ",
"k k k k k k k k k k k k k k k k l f k k k k k k f k k f i f k k k k k k f l k f d A K K L 6 o N P 1 O A P J A l f k k f k k k ",
"k k k k k k k k k k k k k k k k f l k k k k k k l l f M ( G f k k k k k l f k l l d g N K 7 @ e g > @ y g z C l k f l l k k k ",
"k k k k k k k k k k k k k k k l l k k k k k k k f x i _ t.o.f l f k k k l f l f l < X j R 6 @ @ + @ @ + + i l f k k k k k k k ",
"k k k k k k k k k l k k k k k f f l k k k k k k f f f G o.M 4 d l f k k f l f l l t 6 l C 5 @ % $ 3 8 8 8 s l k k k k k k k k ",
"k k k k k k k k k f k k k k k k k k k k k k k k h l k f f 4 o 6 x f k f l f l f f x l f k , + @ + d x k l k k k k k k l k k k ",
"k k k k k k k k k k k l f f k k k k k k k k k k k k f f x i 8 i k k l k l k f l f f f l l r 8 8 8 d k k k k k k k k k f k k k ",
"k k k k k k k k k k k k k k k k k k k k k k k k k k k l f k x k k k k k k k k k k l k l f x l x l l k k k k l k k k k k k k k ",
"k k k k k k k k k k k d 8 q x k k k k k k k k k k k k f k k f k k k k k k k k k k f f l k f f f f k k k k k k k k k k k k k k ",
"k k k k k k k k k k x d + = d d k k k k k k k k k k l f k k k k k k k k k k k k k k l k f l f l k k k k k k k k k k k k k k k ",
"k k k k k l k k l f 8 6 + r o.T f k f k k k k k l f l k k k k k k k k k k k k k l f f k l f l f k k k k k k k k k k k k k k k ",
"k k k k a a d d k i + + O s t.:.d k l l k k k k k k k k k k k k k k k k k k k k k k k k f k k k k k k k k k k k k k k k k k k ",
"k k f x ] ' o.( C c g g 9 k ..^ C z 3 r l f l k f k k k k k k k k k k k k k k k k k k l l k k k k k k l k k k k k k k k k k l ",
"k k k m w.w.w.8.K H K H f z D A K z o < k f f k l l l k k k k k k k k k k k k k k k k f k k k k k k k d d f k k k k k k k k k ",
"k k 6 8 b M T Y A A A A C V v N K V q d C V C j 2 r l k l k k k k k k k k k k k k k k k k k k k k k f ( @.v f l k k k k k k f ",
"k f + + X + i f K K A K K A s l K A k v K A L g X 3 l f f f k k k k k k k k k k l f k k k k k k k k d 3.e.G f l k k k l k k l ",
"k k r i z z C V v c F A A A l l z c C C A A v z h z C C C v k k k k k k k k k k l k k k k k k k f n C E / t 2 d l k k f k k k ",
"k k l z K K K A d l K D H A f l s v H J K C i v K K F K K C f k k k k k k k k k f l f k k f k k k A K A A ; + d f f f l f f f ",
"k k f l x z A H A V z v v z f l k z D A z n C S A D S A S V k k k k l f k k k k k k k l l k x f k C D y 0 t u n C C C C C C C ",
"k k f l f l J J K A f f f f k l f z K C d v K D K A K K K C k k k k k k l f l k f f f f d f d f k A K : o d x A K K K F K D K ",
"k k k k k k z x z x k l h f k k k l x c C A A A K z 5 0 6 u k k k k k k f l f l l f f _ *.@.*.m s z v d i V C A F A S A D A A ",
"k k k k k k k f k k k k k k k k k k f z K A A D L g O @ + 4 x f k k k k l f l l f x f &.w.9.9.I d k k l k A K D D D K K K K K ",
"k k k k k k k k k k k k k k k k k k f v K A K j 5 1 @ 3 i d l k k k k k f l f h f f k M G :.9.R V x k V C A A D A 0 5 7 6 5 5 ",
"k k k f l k k k k f d f k k k k k k k x K A K g o @ + 6 x f k k k k k k k k k k k k k f i @.9.( D x f S F D F F K - + + + + + ",
"k k k k k k f l f n :.o.f k k k k k k l z x z l i d i f k k k k k k k k k k k k k k k l f m I S A z f C S S F w 2 & % t d i d ",
"k k k k k k l l f M w.>.f k k k k k k k k k k k l l l k k k k k k l k k k k k k k k k k l f i C F x f S K S D ; + @ $ f l l l ",
"k k k k k k k k k l G v = 6 l k k k k k k k k k k f k k k k k k k f k k k k k k k k k k f x h x x h h x l z l d d i d f k k f ",
"k k k k k k k k k f f i + : l k k k k k k k k k k k k k k k k k k k k k k k k k k k k k k k k f f k k f h k f l l l l f k k k ",
"k k k k k k k k k k l k d f f k k k k k k k k k k k k k k k k k k k k k k k k k k k k k k k k k k k k k k k k k k f f l k k k ",
"k f k k k k k k k k k k f k k k k k k k k k k k k k k k k k k k k k k k k l k k k k k k k k k k k k k k k k k k k k k k k k k ",
"k l k k k k k k k k k k k f k k k k k k k k k k k k k k k k k k k k k k k f k k k k k k k k k k k k k k k k k k k k k k k k k ",
"k k k k k f l k k l f k k k k k k k k k k k k k k k k k k k k k k f l l f h l f f k k k k k k k k k k k k k k k k k k k k k k ",
"k k k k k k k k k k f l k k k k k k k k k k k k k k k k k k k k k l s ^ 9.Y s x h k k k k k k k k k k k k k k k k k k k k k k ",
"k k k k k k k k f l k k k k k k k k k k k k k k k k k k k k f k f x a ] r.Q i f k k k k k k k k k k k k k k k k k k k k k k k ",
"k k k k k k k k k k f l k k k k k k k k k k k k k k k k k k k k h f f x m q @ u l k k k k k k k k k k k k k k k k k k k k k k ",
"k k k k k k k k k l k l f k f l k k k k k k k k k k k k k k k k k k k f k 6 + u x f k k k k k k k k k k k k k k k k k k k k k ",
"k k l f k k k k k f k f k l k k k k k k k k k k k k k k k k k k k k k k k f f f k f k k k k k k k k k k k k k k k k k k k k k ",
"k k k k k k k k l f k l k k k k k k k k k k k k k k k k k k k k k k k k k l k k k k k k k k k k k k k k k k k k k k k k k k k "
};
