/* XPM */
static char *fb9ce97111984074e070dd335977233fZDwyBrFEfO2fzJ1k[] = {
/* columns rows colors chars-per-pixel */
"55 55 144 2 ",
"   c #010202",
".  c #060807",
"X  c #0B0C0B",
"o  c #0E100F",
"O  c #141414",
"+  c #161817",
"@  c #171918",
"#  c #1C1C1C",
"$  c #1E201F",
"%  c #1F2120",
"&  c #242424",
"*  c #262827",
"=  c #272928",
"-  c #2B2B2B",
";  c #2E302F",
":  c #2F3130",
">  c #333333",
",  c #363837",
"<  c #373938",
"1  c #3C3C3C",
"2  c #3F4140",
"3  c #434443",
"4  c #474948",
"5  c #4B4B4B",
"6  c #4E504F",
"7  c #535353",
"8  c #5B5B5B",
"9  c #646464",
"0  c #676968",
"q  c #6C6C6C",
"w  c #6E706F",
"e  c #6F7170",
"r  c #737373",
"t  c #777978",
"y  c #7B7B7B",
"u  c #7F8180",
"i  c #838484",
"p  c #878988",
"a  c #8B8D8C",
"s  c gray55",
"d  c #8D8D8D",
"f  c #8D8F8E",
"g  c #8E8E8E",
"h  c gray56",
"j  c #8B8B8B",
"k  c #918F90",
"l  c #909090",
"z  c gray57",
"x  c #929292",
"c  c #939393",
"v  c gray58",
"b  c #959595",
"n  c gray59",
"m  c #979797",
"M  c #949494",
"N  c #999798",
"B  c #989898",
"V  c gray60",
"C  c #9A9A9A",
"Z  c #9B9B9B",
"A  c gray61",
"S  c #9D9D9D",
"D  c gray62",
"F  c #9F9F9F",
"G  c #9B9B9B",
"H  c #9EA09F",
"J  c #9EA09F",
"K  c #A0A0A0",
"L  c gray63",
"P  c #A2A2A2",
"I  c gray64",
"U  c #A4A4A4",
"Y  c #A5A5A5",
"T  c gray65",
"R  c #A7A7A7",
"E  c #A3A3A3",
"W  c #A6A8A7",
"Q  c #A7A9A8",
"!  c #AAAAAA",
"~  c #ACACAC",
"^  c gray68",
"/  c #AFAFAF",
"(  c #ABABAB",
")  c gray69",
"_  c #B1B1B1",
"`  c gray70",
"'  c gray71",
"]  c #B6B6B6",
"[  c #B3B3B3",
"{  c #B9B9B9",
"}  c #BBBBBB",
"|  c #BCBCBC",
" . c gray74",
".. c gray",
"X. c gray75",
"o. c #BBBBBB",
"O. c #C1C1C1",
"+. c gray76",
"@. c #C3C3C3",
"#. c gray77",
"$. c #C5C5C5",
"%. c gray78",
"&. c #C4C4C4",
"*. c #C8C8C8",
"=. c gray79",
"-. c #CACACA",
";. c #CDCDCD",
":. c #CECECE",
">. c gray81",
",. c #CBCBCB",
"<. c #D2D2D2",
"1. c LightGray",
"2. c gray83",
"3. c gray84",
"4. c #D7D7D7",
"5. c #D5D4D4",
"6. c gray85",
"7. c #DADADA",
"8. c gray86",
"9. c #DDDDDD",
"0. c gray87",
"q. c #DFDFDF",
"w. c #DCDCDC",
"e. c #DFE1E0",
"r. c gray88",
"t. c #E1E1E1",
"y. c #E2E0E1",
"u. c #E2E2E2",
"i. c gray89",
"p. c #E4E4E4",
"a. c gray90",
"s. c #E6E6E6",
"d. c #E7E7E7",
"f. c #E4E4E4",
"g. c gray91",
"h. c #E9E9E9",
"j. c #EAEAEA",
"k. c gray92",
"l. c #ECECEC",
"z. c #EFEFEF",
"x. c #EBEBEB",
"c. c gray95",
"v. c #F3F2F3",
"b. c #FBFBFB",
/* pixels */
"  4 Z q   a f & = . y A k k n N c 8.x.d.g.x.+.p Z j   &   i Z O 7 I 9   d m   9 L 7 X = * * * & h H m u   u Z ",
"8 0 i r 7 i e & - X y v N N m k k #.:.;.=.1.~ c m i q 6 O 0 y * 7 p 9 8 y q 9 0 i 5 @ : - * - * r t u q 8 r i ",
"I k   r Q 4 . - =   i Y A M k A n d k k p c j V Z c F 9   O         i I 1 2 ! y   O         .     @   q R 7   ",
"9 9 y r 9 3 # & - @ 8 9 j k N k V M A M m A m n c c m p r 3 3 [ L   6 w , > e 7 O 0 t r r e q r 1 % & 5 q t u ",
". 6 Z 0   : - : - - O X i L N v k C M f M n f M M n M M L 8 5 z.:.  -   # *   # & i Z Z n I S C 6 % > #   i v ",
"& - 3 - o r S 0.{   - - k j o r M V n K M n c V N j L r - # 5 h.y.0.c   1 &   8 p k n 6.0.6.3.0.G i # $ ; > 3 ",
"* = @ 3 5 M ) l.+.8 2 # j y ; q n h h i M M p k M k k t , O 8 <.0.x.k % > > 1 w S L T 8.j.j.d.d._ N 4 1 - % O ",
"& *   q f 2.d.y.y.j.k   # 7 L t   h V   8 R 9   m d   q I 8 ; M c k N N 3 3 Z m x 8.j.d.y.y.a.y.x.y.F r   - - ",
"O 4 0 C +.9.y.y.y.x.j   - 3 t q q r r q q t w q t r q q t 2 , M x V M x 3 4 m j 0 ] $.8.d.d.r.a.=.O.N r   - = ",
"O 6 m :.b.s.y.z.g.v.x   ; %   w ^ -   K u   y D   = I t   O 2 M m x c F 2 5 F r   t F a.g.a.d.j.T i N y   = & ",
"o 7 c k y ^ ] u c | 9   = 5 i w 5 y k 8 9 j w 8 i p 6 0 j 7 > v C f n M 5 ; 7 e i 9 9 ~ [ / X.^ q 9 m t   ; = ",
"+ 6 x 9 X r i   7 m 7 , O 4 ! r   k s $ 8 N 9 O j j   r A 7 > j a h c M 4 # O 9 F 7 = u f j i k 2 1 k r   - - ",
". % # r I 7 1 Z u   j m 2 & O 0 L 3 > N i   y N 1 - o       # ; 1 $ t E 2 3 L y   p m - 8 U w   j k > = % &   ",
"8 7   0 d 8 8 d t 4 r i 3 $   9 j 6 - j q . 0 j 1 > 8 w i 9 5 < - X w i 3 2 j w 5 y i 8 9 p 0 4 i i = ; = 3 8 ",
"n y . O   d c   8 L 8   = - & X       X O - @ O   - j $.h./ j     o X o $ *   q Y 4   k a   y E 2   . X   y A ",
"-. .r 8 + 8 q t r 9 5 @ - = $ 8 y ) ) 1 - & = , )  .$.3.h.<.O.} Q r 7 # * - # 4 q w u 9 0 y 0 9 > 1 t y e ` %.",
"l.3.N q     1 D i   = & * &   q A 9.y.,   - + > y.z.y.g.g.y.x.v.3.A 9   - - - -   f L X 7 W 0   O 1 A C M =.z.",
"y.8.g.Y y 7 O 6 1 > O & e S :.5.3.p.h.,.R X 9 M L ) g.p.g.+.I R I N 8   - O X     ; < * < 6 2 * y k i _ 6.0.a.",
"y.z.0.,.T 0 > $ # & 2 6 A  .l.y.y.y.y.v.+.  r k d Z 5.3.6.I u c j k 9 X > 4 q r r 9 0 , $ X % % x A L +.l.d.0.",
"g.0.h.l.l.) j - = X i N 9.z.p.d.l.p.y.h.)   - % n k   q L 4 + F j   % = . 8 x.y.g.a.y.4 . > * - i K l.j.d.j.j.",
"y.0.;.$.-.Y i * ; O t N =.$.%.,.$.y.g.a.+.  ; * r u 9 0 i e 9 y q @ - - i / 7.s.y.3.=.y 5 * * & k n ' @.%.3.d.",
"x.0.i k k M c - &   i G j k g j d 6.j.x...  ; -   1 L t   j p O   - - X 6.l.d.d.x.I r A p   - $ p C   8 k <.d.",
"i p F u 8 8 8 . 6 j k k N N N N m / ^ ] k   * - & , 7 q d 9 8 & = & = # K ' k.w.y.8.:.I p i 0 X 8 7 p t 5 n } ",
"  , Z 9   O @   9 N N M k N k N M d d k r   : * ; ,   r F 8   ; = = = > y T y.a.y.d.g.A x H 0     , Z t   r x ",
"N j X w G 6 @ & - # i N 3 7 A r   M N 4 1 $ %                   @ X w M M A A | v.~ N F i # ; & - - > 9 A 9 - ",
"u u 4 e s 5 O = 1 5 y i 8 8 j r 5 t u & = = 5 8 i j i j j i i 8 8   y G i i j R +.~ k i y 6 2 % & ;   9 j 9 7 ",
"  4 ! q   - ;   9 T 7 . k k . q ! 5   - $   r N 6.v.p.y.l.x.p.Z y X t G - > T t   j M   6 R q   - & ; &   i ! ",
"& 3 q 8 # - & # 4 q r q r r q w 9 2 = O 8 9 K %.9.p.0.l.g.0.9.=.^   8 y e r w q e q e r e r 7 O * = % = % 8 9 ",
"# O   X - = - = & . i F & 4 L y   - =   q G >.v.s.h.y.p.0.h.y.z.%.  $   j j   9 R 5   m i   # = = % * * O   X ",
">.6.3.( i 3 . % - # 2 4 = = 4 ; # & - & ; > j Y 0 p s.p.y.h.8.r 8 # ; = 3 4 % ; 5 ; - 3 1 $ = $ y j i / 5.:.5.",
"z.y.z.=.N q ; > = > O X 1 < 3 3 5 - = = , % t k O 9 5.h.6.0.<.; O = = - % & 1 2 . & & % = 1 1 1 N Y m +.l.h.y.",
"y.y.y.y.a.L i . X = = - s N i j j 3     8 Y 9   N j   w Y 8 ; F i o O     1 m 0 O & :   8 G n k 7.s.s.g.y.p.p.",
"p.y.p.h.s.=.) 0 8 # = > j L ] ..| i 8 & 7 y q 9 t y 8 w u 9 9 y q O 8 e 9 y #.c   - ; 8 t Z d N O.=.%.3.d.a.y.",
"p.z.h.p.p.z.y.A y X O @ y ] b.y.x.` d , +   y !   & ! r   j K X     r N j R x.X.  > ; m N k I k x a i ..y.j.g.",
" .^  .[ ] { ^ A u   0 y c N ] [ | m d > % = 6 8 y y 9 q i q 7 & 6 e / >.$.;.x.]   ; - k n Z k x k C n ! o.] +.",
"p k k k j j j A t X j N c N i M i m d 2 = ; & # N j   9 I 5 . & 9 L ,.z.x.y.l.]   > > p Z p Z m V V M k i f f ",
"A N k M L k A M i   y D 2 8 D t > , =             O > > 1 = 2 i ! y.y.h.y.g.z.X.i 7 * c m m m c k M M n R c m ",
"p g G j i M k k r   r i 5 8 j q   3 8 w r y q t y 9 % & & O 3 k ` 7.6.3.y.0.y.<.! 0 X p k m f p m m k i c c i ",
"  5 Z 0 X k j O % & = # N i   @   p n 0.d.d.j.y.l.6.  O - # 3 N k N k M 0.x.p.g.s.u     7 Y 9   k k   9 F 7 . ",
"r e w e e 0 q & = > = - r 8 X 8 t _ $.d.d.0.d.0.%.` r 8 O & > 9 y M u 0 ` +.| :.k.y   r q q e t q r r r e e r ",
"D j . r I 5   ; O             r A w.v.s.0.x.y.a.C p ! w   ; *   5 Y 8   i N y | v.y   A i   r Y * + W t   u R ",
"5 9 k q 7 > >   y 5.-.=.<.^   q N / L ^ { T 3.y.K k 5 2 $ & * $ 1 5 e N 8 9 L j y 6 # 6 0 N 0 4 p u 4 0 a 9 4 ",
"  3 N 9   - > O M h.s.p.h.%.  0 p c a h d u { 0.A y , , & $ - & ; - y k 6 4 N q   ; -   6 M q % p a & w C 9 = ",
"= % - % - % 3 A N j 5.d.^ u O ; & a A J u   i A - 1 J 0 . > $ . 7 L 9   k s . 9 T 5   - ,   r I 2 , P w . t A ",
"> > & ; - o 2 N k u } ,.k q % - # e i u t 7 t i 8 9 p 8 X * - O 7 j 9 7 i y 6 q i 0 7 > =   0 y : ; p 9   t u ",
"    . # - # 4 A y   t K =   , $ * O o   9 T 8   C p . . = & & & %   u I 1 1 ! y . i D =   ; #   & - . . O     ",
"O._ y 8 X $ , 8 w j 0 8 y r O - * & - * 1 9 r y 8 9 u 8 X - * & ; # 6 9 > < 8 9 i 9 9 u q O % > & * O 8 y ` $.",
"z.w.N q o ; &   8 K 8   M j O - = - > * *   y F % 1 F t   - - - = = % X - - . 0 L 6   N i . > % - ; X q n <.l.",
"d.w.6.` y 6 @ - , 1 u a 7 1   8 f -   X O o ; 1 & ; 4 1 # . > i s i s s - . O - 4 ; = 2 ;   # =   1 t ) y.3.d.",
"w.d.z.$.^ 9   - &   t c > , 5 p _ i t 8 8 7 7 5 > & + # ; 5 8 ! ( T ( ( i q 8 4 O ; & 6 6 8 4 # 5 9 ! $.h.h.y.",
"k.y.p.p.l.y X ; % ; # O   7 h X.l.d.j.x p k m Z >   - &   y ^ x.j.z.g.l.l.8.v r   # > d N k 9 o j Y k.h.y.y.y.",
"y.y.=.=.-.i 7 - * * $ : 8 p ' ,.d.d.a.{ | $.L k e 9 + 7 9 j N +.=.O.3.y.:...v j q 1 > k Y O.j   j K  .5.g.y.x.",
"h.5.j i j N M % & * @ * j ` z.j.y.e.0.d.x.l.} f C c   r ! x A a j i <.d.L j k v m 8 * j / b.~   k k p { x.0.g.",
"^ Y M K N M j = = O t a O.0.8.y.d.d.d.d.y.y.y.-.C j # 1 4 p n n L j I ^ N N N v Z 8 + 3 t ` r   d V c A ` ~ ^ ",
"k k M M k N j & -   i Z y.a.l.y.0.u.y.y.d.y.x.d.T i * & X y C c g N c k N k k N c 7 O   8 c q   p A Z k j k k "
};
