/* XPM */
static char *ff584ce31b1b46a3c96a47e28714088ax3TPOXemq2iSZ7Ph[] = {
/* columns rows colors chars-per-pixel */
"71 71 140 2 ",
"   c #020202",
".  c #070908",
"X  c #0C0C0C",
"o  c #0F1110",
"O  c #131313",
"+  c #161817",
"@  c #1C1C1C",
"#  c #1E201F",
"$  c #1F2120",
"%  c #242424",
"&  c #262827",
"*  c #272928",
"=  c #2B2B2B",
"-  c #2E302F",
";  c #2F3130",
":  c #333333",
">  c #373938",
",  c #3C3C3C",
"<  c #434343",
"1  c #474948",
"2  c #4B4B4B",
"3  c #4E504F",
"4  c #535353",
"5  c #565857",
"6  c #5C5C5C",
"7  c #5E605F",
"8  c #646464",
"9  c #6C6C6C",
"0  c #6F7170",
"q  c #747474",
"w  c #767877",
"e  c #7B7B7B",
"r  c #868686",
"t  c #838383",
"y  c #888888",
"u  c #898989",
"i  c gray54",
"p  c #8B8B8B",
"a  c #8A8C8B",
"s  c gray55",
"d  c #8D8D8D",
"f  c #8D8F8E",
"g  c #8E8E8E",
"h  c gray56",
"j  c #8C8C8C",
"k  c #909090",
"l  c gray57",
"z  c #929292",
"x  c #939393",
"c  c gray58",
"v  c #959595",
"b  c gray59",
"n  c #979797",
"m  c #949494",
"M  c #969897",
"N  c #989898",
"B  c gray60",
"V  c #989A99",
"C  c #9A9A9A",
"Z  c #9B9B9B",
"A  c gray61",
"S  c #9D9D9D",
"D  c gray62",
"F  c #9F9F9F",
"G  c #9B9B9B",
"H  c #9EA09F",
"J  c #9FA1A0",
"K  c #A0A0A0",
"L  c gray63",
"P  c #A2A2A2",
"I  c gray64",
"U  c #A4A4A4",
"Y  c #A5A5A5",
"T  c gray65",
"R  c #A3A3A3",
"E  c #A9A9A9",
"W  c #AAAAAA",
"Q  c gray67",
"!  c #ACACAC",
"~  c gray68",
"^  c #AEAEAE",
"/  c #ABABAB",
"(  c gray69",
")  c gray70",
"_  c #B4B4B4",
"`  c gray71",
"'  c #B6B6B6",
"]  c #B7B7B7",
"[  c gray70",
"{  c gray72",
"}  c #B9B9B9",
"|  c #BBBBBB",
" . c #BCBCBC",
".. c gray",
"X. c gray75",
"o. c #BCBCBC",
"O. c #C1C1C1",
"+. c gray76",
"@. c gray77",
"#. c #C5C5C5",
"$. c gray78",
"%. c #C3C3C3",
"&. c #CBCBCB",
"*. c gray80",
"=. c #CECECE",
"-. c gray81",
";. c #CCCCCC",
":. c #D0D0D0",
">. c gray82",
",. c #D2D2D2",
"<. c LightGray",
"1. c gray83",
"2. c #D5D5D5",
"3. c #D7D7D7",
"4. c #D4D4D4",
"5. c #D8D8D8",
"6. c gray85",
"7. c #DADADA",
"8. c gray86",
"9. c gainsboro",
"0. c #DDDDDD",
"q. c gray87",
"w. c #DFDFDF",
"e. c #DCDCDC",
"r. c gray88",
"t. c #E1E1E1",
"y. c #E2E2E2",
"u. c gray89",
"i. c #E4E4E4",
"p. c gray90",
"a. c #E6E6E6",
"s. c #E7E7E7",
"d. c #E3E3E3",
"f. c gray91",
"g. c #E9E9E9",
"h. c #EAEAEA",
"j. c gray92",
"k. c gray93",
"l. c #EBEBEB",
"z. c #F1F1F1",
/* pixels */
"  % e v q   8 B k , @ o ; t v G v h z S k S 6.h.k.h.k.h.6.~ i B v 9   @   8 v B ; ; t S 8   9 v N = , y S 5 = O % = $ % + > h K B B e % 6 d P ",
", 4 w s 9 , 8 k q > * o : q l n k n n v z v :.6.6.6.6.0.=.Y d z z q 2 <   5 t t , > e k 8 < 9 t e 2 4 t p 6 = @ % = * = * , e j d i q < 7 t d ",
"t t q 6 e t e 8 6 = = o = q F G n S v v v z Q ~ [ [ ! ` ~ n n S d t t 4 o > 4 6   O 2 9 q t e 8 4 p t 9 5 , . . $ . X O   % 4 5 7 6 9 t e 8 7 ",
"U x 8 = 0 ~ e o   $ * X : t n G B z i B n v d d z p i k d p n B z K G q < +     2 3 @ @ e B e   2 B v 4   ; - - = ; = = ; *       $ 8 L t , $ ",
"8 8 e w 0 9 4 , @ % = @ = 4 6 t z d v B v B z v v h B B v n n v v v h r w 5 : 2 E T e X 4 9 4 = , 9 8 < + 8 w w q w 9 8 q w , = O : 2 8 e q e ",
"& , q b 9 , % $       . = : O 8 z S L n v v B G v d G n z n z z v n n h D t , 8 9.p.x   @ ; = $ % : =   ; r z h h r z A d r <   @ ; = O 9 l b ",
"  % 8 e 4   : 8 e E T 9   O   8 v S 8 q h v v v v z v v z v n n h n G t e 6 = 8 j.p.;.n e =   ; %   ; 3 0 t h ` +.$.....O.+.r 9 2 @ @   2 9 q ",
"& & = & % X 8 i ~ g.,.G   =   q v r   < t S v n B S v v z z B n h v N 0 %   @ 8 5.f.k.0.S , X : %   2 t n N p  .u.g.u.u.t.q./ v 9   % : = @ = ",
"* = % @ < 2 e T } g.5.W 6 2 X 7 r e < 4 e B d k u e z v k d r n h v t q 4 = * 8 %.2.i.9.x 2 ; : : , 8 t D Q I #.u.l.a.g.s.s.| Y t < < = % @ X ",
"% *   = 8 9 ] 3.u.s.3.a.1.h :   < 6 v v 4 , z S q $ 8 B k < , k N 9 = 9 G e , < S K S D C N 9 : 2 h z h D ,.a.a.s.u.u.a.0.u.t.l...d 9 = o = = ",
"O > < 7 r I $.y.a.q.u.g.a.N 2   % 2 i t 6 3 e z 9 < 8 d q 6 5 r p 9 2 0 d q : < u v k d x F q ; 2 n n p p $.3.w.u.9.u.u.u.t.3.>.O.b 9 ; O = % ",
". > 8 r ] w.y.y.a.s.g.l.a.v >   : : 4 6 e z 6 < q u e 3 9 t t 6 2 q h 9 7 < * < d n z n N S q ; 4 B h 9 4 n ^ &.g.l.g.u.u.t.#.( B l e ; X = % ",
"  < q T @.k.a.t.8.l.q.a.t.z <   = = X 4 h D 2   q K q , 6 r z , X q G q < X % < d S v k v K q = 5 p u 4 : 9 e X.u.g.q.t.g.t.K e d v e ; . = % ",
"  ; e v n t S  .] y p ~ } 9 =   : 4 e e 6 4 9 d e 6 9 t e 9 8 e t w 4 9 p 9 < < u G n v k S e , = 5 8 t e 8 7 h [  .^ } | ~ q 7 t x q : o = % ",
"O , e k 9 + 6 z k : < e D 8 $   @ 4 U h 4 X z z 9   6 v i , @ h G 8 * 9 G r , < k n k h v C q ; @   1 u G 5 . 9 N v h N A j 2 % 9 v e ; X = = ",
"  % 6 9 9 w 9 6 8 0 9 9 8 0 e 6 @ < e e 9 e q q 9 q q q 9 q e 0 9 2   3 9 4 % = 7 9 9 q r F q = > q e 8 w q 9 9 6 w n j 8 8 9 9 9 q 4 % @ $ X ",
"* -   % q D y = < B x 6 X r B e = @   < u Z <   9 S t   4 d B , O @ = $ $ % = % $ %   % 0 H w - 3 N N 3 . i S q @ 5 D p 2 O g n q   @ @ = % = ",
"7 6 , @ 9 t q 8 8 i t 8 2 e e 8 : @ . < q d 4 = 8 u 8 @ 2 q t 2 % 1 8 q j e 8 2 : - + = 8 t 9 : < r e 9 3 q h q 6 8 e w 7 5 e r 8 O * * < 3 8 ",
"d e 3   = @ 9 k i : 1 i B 8 , = % = @ = $ @     . ; = * = = :     2 l ..q.#.x q .     . % - ; * = = 4 j N 5 o 7 h p , 6 g n 6 > @       2 r G ",
"' ' u 1 <   6 e t 6 6 q t 2 @ X = = @ : 2 9 t h 8   @ = % O : e j R  .:.g.9. .E l t 0 3 > # o % &   < 0 d 7 3 w r 9 5 9 q t < O < 6 9 3 e T } ",
"w.<.( 9 8 % $ 1 7 u t 8 < 1 % % $ X   , 0 v O.=.n   X @ @   3 =.9.<.2.6.p.r.9.2.r.=.^ e 8 = O = = # - 1 3 e x w < 7 x t 6 < % @ 9 l h q U =.0.",
"k.8.;.S w <   X , n b 6   @ $ = , < 2 9 d Y 0.z.} : , * * $ 8 ,.a.s.z.j.g.u.s.p.g.q.O.z 9 = X * & = -   & a B q   6 C e 2 . % , e B S B | 0.z.",
"a.i.w.3.T t 8 , @ 4 1 < = @   2 e S @.=.-.1.a.a.6.X.S < , 0 D T ` ;.t.u.g.3. .Y ^ ~ Y l 7 % o = o         : < : = : 8 3 : : 9 t t N [ *.8.y.y.",
"9.k.a.w.O.K q < X = % % = = = 9 n ( a.a.w.t.y.y.z.r.X.< 2 i v h p +.a.a.a.$.R j x h x v 8 = $ : > , 1 2 1 < < , = = @ % @ , i F b b } p.f.y.t.",
"a.a.i.y.r.3.[ t 8 = + X : 8 q K &.q.j.h.a.a.a.t.j.a.[ 2 : 6 e h N v S (  .N 0 6 v z e 8 2 =   $ 4 [ `  .` [  .i   X @ @ O , t n | 3.>.j.k.p.y.",
"t.r.w.a.g.k.:.P i < % o ; t d %.g.k.q.w.a.a.y.t.a.q.( 2     % i h 8 . 5 v t @ > B B 8   @ @ ; < i t.z.h.a.z.l.( % O : : @ , d k #.k.g.y.y.g.f.",
"a.i.3.%.$.&.' S e , = @ - e i } $.;.@.&.&.#.y.a.a.h.O.2   * > 9 r q 7 9 e e 8 9 q 9 5   = O 9 z Q 6.a.a.t.0.&.E 9 2 = @ @ , i d P [ @.#.=.y.p.",
"z.j.%.u B S S S d < O   % e B n G d B n v G 8.h.z.y. .5   : - = : e S w = 9 z t < % - % *   n a.h.a.w.l.0.~ p r z e =   O , r L e 3 9 p X.0.g.",
"} ' E y t e q e q = - 4 q r k z z p n h p n X.>.-.&.U 1   - %   @ 7 y 9 8 q e 9 %   + : *   d &.3.y.y.k.a.O.[ Y S p 9 3 , - q e q 4 9 6 K %.2.",
"5 4 r R q , : < < X , 9 v Z z v N G v v B K z B U D e : X = = = > > , q S i 4 , : * = % $   9 B Q a.h.0.w.w.a.@.v r v t 4   , : q x e = 6 k ! ",
"$ = 9 u 9 < @ O X   2 t v v z z h z z h h p z h r i q * + = * = - O * 9 v t >   % ; % = , : 9 r T 1.w.t.h.t.a.$.z v n t 4       q x q , 6 e d ",
"n i q ; 9 v e : O @ = = < t K e < 6 S d 7 , p S t , < $ % O             % .       X   - 8 p z N I I ( 0.j.} L K B t < : ; % * = : 4 8 x t 3 : ",
"d k 7 = q v e > X = - * , q n 9 , 5 k t 6 - t k 9 X = % ; < 2 7 8 8 7 8 8 6 7 6 2 2 = = e n N p z r I @.1.( z k d e < % = % % ; + % 8 n e 3 : ",
"6 7 t t 9 9 6 - $ O , 9 t q 8 0 e q 9 8 q i 8 5 3 O $   3 6 u ! X.+. .+.+.X.X.] t 0 < - e n r 8 8 z h z v B v e 6 8 t q 2   % : @ - 4 7 e e t ",
"  O q Q 8 o   ; =   < t Y 6   9 b i : 2 t K 2 X   ; = O 6 l ( 9.z.z.t.a.z.z.h.0.( h 8 @ q S 9   < B n 2   t v 9   6 Y r 4 X % % ; * O   5 l Q ",
"@ ; 8 8 8 - @ = % O , 6 8 q e 9 q e 9 9 q 7 < = O : 4 8 d E :.5.a.y.t.l.l.t.t.t.#.+.t   8 9 w q e 8 8 q 9 9 q 9 q q q 8 , X % = @ * = + 1 7 9 ",
"            @ % = % % = < e S q = 4 v k 8 @ : =   ; 9 i | 9.z.z.h.a.t.y.t.0.y.t.z.r.n   = $ 9 z p , 1 u ( 3 % q v t < * % % @                 ",
"S T I S e 9 4 % @ % %   @ 9 e 8   < q q <   % = % % 4 9 n O.2.( ` 3.a.t.w.h.l.8.| T e   @ X 2 w 9 % - 8 e 1   4 q 9 %   @ - 3 8 8 9 t K D D L ",
"5.a.a.t. .S q ,   % = = - = = % % % : % % = @ = = % =   6 i v , 2 T h.z.t.a.a.1.9 = = % : % ; * - % = - = % = = % % = * @ > t n h v | r.t.t.r.",
"z.q.g.h.:.Q i 8 : : = % - O   : 2 < 2 2 2 4 ; % % - : : 6 u t : < B 6.t.,.3.3.O.4 @ @ * @ = $ $ % < < :   $ % $ % - < 2 , 5 D Q Y Y $.h.k.h.i.",
"t.a.a.0.y.t. .d q @   @ % % X 8 d k t t t e < X   = 6 S r 3 > h z q 2 e ! k 6 6 v p 8   X       < p q 2   % = O @ 3 k n t n 2.r.y.r.y.i.i.f.f.",
"a.t.t.t.g.h.>.~ n 8 < , $ = o 0 n S L T ! L q 2 = % 8 p e 5 2 r h 8 - 8 p e < 3 t x 6   < 6 3 4 8 ` L 8   = = , 2 9 v n d S ;.9.9.5.r.i.i.r.i.",
"a.a.h.a.g.h.a.6.$.v 9 4   O   6 z ~ >.1.3.=.T r 5 * < 3 9 e r 6 3 e p 9 6 9 e t 6 4 : @ 8 e q w z 6.$.t   * @ 7 r p v B B n ! ( T ' ;.i.k.f.f.",
"0.t.a.a.0.0.t.g.5.W d 9   - = 8 k ] f.h.y.0.] S 0 @     4 d L > . w D q % 9 k v -   X , e D I S  .a.1.N   ; O q S B v n S k d d t k ' 2.r.r.r.",
" .] }  .} } }  .^ U x 6 X 9 q r n S `  .} ` L v 9 @ % $ < 5 8 w t q 8 q t q 9 2 = : 4 t ~ =.$.#.-.a.,.h   - O 9 v G v n v h k n v S T ] | O.%.",
"z z z v v v v z d S i 4 % t z B S z v v v n S n 9 > % * : * 2 h d q = 8 n d , @   < q S O.y.y.t.q.h.>.r X ; O 8 v n k n n n n B n v v x k v n ",
"z z v v h h z z v K d 7 - e n h 9 e n i q 6 q 9 4             9 9 < @ 2 t 6 = = 6 e Y &.6.z.z.a.g.z.3.G < 2 @ 9 n B h n n G v k v k l v k k k ",
"K B v z v G B z n n u 7 @ e S 9 % 4 n d 6   @ $ % : ; : = : : + X % = = O @ % 4 r Y &.l.a.t.0.w.a.j.1.] e 7 @ 9 n G v S k k v n v v n K S v k ",
"t p d B t t k d d d e 4 @ 9 t q 3 8 i e 4   2 4 9 e t r w e r r e 4 X % = o @ 2 i Q X.t.>.>.6.0.y.t.0.$.T 9 @ 6 i i G d r d z B z t t n k d t ",
"@ : t N q $ 9 B i 3 = = % , % 9 v r < @   @ q t ( q.q.q.t.q.3.y.y.B . X @ @ = 4 z v G Y v n &.z.z.a.y.a.3.u ,   : 8 S d 5 : z n q : 8 z z < $ ",
"5 6 q t 9 4 9 e q =   = - @   8 y 9 % * < 9 T E ,.z.h.t.g.g.w.a.<.Y , < : @ @ < q t d z i q L =.,.,.3.t.0.t = : 4 6 t e 6 4 e i 8 4 9 h e 4 3 ",
"d i 8 2 q r e 6 4 ; @ X       : 2 :   2 0 N ..7.y.u.u.t.a.g.8.[ Y B r 8 % o = : 3 6 r v q < e ( ( T ( a.z.t * 6 d e 2 8 t d 6 < e i w 2 8 u k ",
"G v q - q B e $   % : , 4 2 4 2 1 < . 4 t ^ <.j.h.5.t.w.t.a.q.S r b E 9 : @ ; @   % e B 6 : 8 e p e G >.6.r O 9 n e < 4 t B <   w L 9 > 8 p K ",
"4 6 q t q 7 < : =   6 L >.=. .;.#.D , < t A [ T [ ( } ~ @.5.q.T m e , < % % % % + : < 7 q i e 6 9 K D r r 4 * , 6 9 v e 6 6 t t 9 4 9 r e 7 3 ",
"O = e D 9 , $ = -   6 O.z.r.t.f.g.O.< 3 w V V j y v S r ( 3.t.E m 8 X = % % $ ; % ; O = q D q : 2 n p 6   > - @ ; 6 n r < @ t S 9   9 N r <   ",
"X @ 6 q 1 % O = < 8 i T &.t.h.t.$.~ , = 6 9 d x B b t 5 t [ +.w 6 9 q 4 ; @ = $ @ ; 6 e q 8 q q 0 9 8 9 q , @   = , 9 q q q 9 9 q w q q 9 q q ",
"- % @   O = $ @ 2 D B i d &.t.$.h w - o   ; e V S v w % 5 i p = . e Z 8 : + = @   : t S 8   9 v y @ < y D 6 = % ; =   4 d S <   e K 9   4 p I ",
": = % % = = @ @ 2 v z r r ] =.( t 6 , $ @ ; 9 e t e e 8 9 w e 6 8 q t 6 % @ = = O , e e 8 4 q t q 6 8 e y 7 9 < = =   < 9 e , + 8 r 8 O 4 e e ",
"  . .   O = @ % 4 S v 6 > e ^ r X @ - * @ & : ; = , 9 L e < < z l 8 O @ # @ = % % % @ 2 t L e : 4 B k 6 = t S e     - : : = = % : = %         ",
"v d q 6 < = O % 2 q e 9 8 q q q 6 3 = & % % O O   = 2 e t 8 5 e e q 4 < = % % & $ - X % 8 t 9 @ , t t 9 6 e e q 6 4 = O O O % * O X < 6 e i S ",
"6.,.( t 6 $ X = ; , 4 t v 8 : 9 z e > O * # * ; = * ; , 9 t d 3 < q i 9 - X = % @ % @ @ , , , = : : 5 e v 7 , e v e : X = : $ - O % 6 e ( :.3.",
"k.k.&.z w < * = @   , t z 6 - 8 h r : @ , , : = - = @   3 d C ;   w A q : X : = , , < , : : % = % . < r n 3   8 v e : @ : @ = - % 1 e b +.9.z.",
"h.w.1.=.` r 6 < @ @ : , 3 t u q 4 < . , w e =       X   = , , = * , 3 < * .   < q y e e i d 6     . % , 4 , % : 2 ,     % *   % 6 e ( 5.8.5.i.",
"0.a.l.a. .Y e <   = % O : e k e % - * 5 f H 9 3 2 < 2 , , < ; - = * % % * : : 3 v D B B D n d 3 < < , : @ = = : , , 1 , ; % = < q U | r.f.a.y.",
"a.a.l.l.8.8.I 2   ; = X - 6 q 3   , 9 d  .>.} O.S q q 9 q e q :   O @ O   3 q z &.=.:.-.-.>.&. .Q t 9 2   % @ 4 q e e 8 , = 8 e ( 5.5.r.k.i.r.",
"a.t.w.w.a.z.` 6 @ % = = %       , 9 z ( >.z.k.z.=.v v D L U n 4 = * = - @ 6 z ' a.h.h.a.f.k.k.l.3.Q r 7 @ $ + 9 n n S t 3 = y S &.f.a.y.i.r.a.",
"a.y.3.O.&.>.Q q 3 , $ = = @ * 2 8 r ( &.,.g.h.a.1.`  .&.( n i 9 9 < % 5 7 e z D  .#.%.$.3.t.5.&.] G r t 9 < @ 9 S Q %.W 9 O u n ^ $.3.i.i.i.k.",
"h.t.O.z d v B z y : O = @     4 z ( 6.h.t.a.t.0.0.t.a.h.-.S i v n 9 o 0 L D z v v n h S :.z.;.G v v n n k 3 $ 9 S ] k.>.e @ d v d Z ..f.k.a.k.",
">.#.T i d d v B z < O @ : 6 8 z } =.a.a.a.a.t.y.a.h.a.a.y.#.Y L n q   6 w h z G k v i d ] -.` k d v B v n 6 = 1 q n 2.| 8 @ r v l k W ;.;.#.;.",
"S B v n L B z h e , $ O : e r  .8.t.a.0.a.a.a.g.a.y.a.w.a.h.,.Y d 9   ; + 6 i v n S G n G B n B B n v v n 6 $   < 9 L d 2 % r B Z v n S Z S K ",
"h d d v v v z v i , % X - t d O.h.a.h.0.t.t.t.t.t.t.k.t.y.k.t.~ d 8 X %   6 z B v h d v n z k v d k v v d 6 =   % 5 d e 2 = r B Z b k u u k k "
};
